<?xml version="1.0" encoding="utf-8"?>
<!-- Generator: Adobe Illustrator 25.0.0, SVG Export Plug-In . SVG Version: 6.00 Build 0)  -->
<svg version="1.1" id="Calque_1" xmlns="http://www.w3.org/2000/svg" xmlns:xlink="http://www.w3.org/1999/xlink" x="0px" y="0px"
	 viewBox="0 0 297.6 419.5" style="enable-background:new 0 0 297.6 419.5;" xml:space="preserve">
<style type="text/css">
	.st0{fill:#E8DABE;}
	.st1{fill:#FFFBF0;}
	.st2{fill:#5C573F;}
	.st3{font-family:'Quicksand-Light';}
	.st4{font-size:20.5136px;}
	.st5{fill:none;stroke:#E8DABE;stroke-miterlimit:10;}
	.st6{font-size:10.2568px;}
</style>
<rect x="0.1" y="-0.3" class="st0" width="297.6" height="419.8"/>
<rect x="10.6" y="14.5" class="st1" width="276.8" height="390.1"/>
<text transform="matrix(1 0 0 1 101.2944 88.1306)" class="st2 st3 st4">HEART X125</text>
<text transform="matrix(1 0 0 1 311.7543 86.6935)" class="st2 st3" style="font-size:15px;">700h of autonomy</text>
<polyline class="st5" points="207,336.6 258.9,336.6 258.9,81.5 221.9,81.5 "/>
<image style="overflow:visible;" width="1890" height="1417" xlink:href="../../../../../design/Sans titre-1.png"  transform="matrix(0.3693 0 0 0.3693 -149.0638 -57.2729)">
</image>
<rect x="34.6" y="68.1" class="st1" width="235.1" height="2.6"/>
<path class="st2" d="M88.6,73.3c0.7-0.1,3.7-0.5,3.8-4.3c0-0.1-0.1-0.2-0.2-0.1c-3.6,0.6-3.8,3.6-3.8,4.3
	C88.5,73.3,88.6,73.3,88.6,73.3z"/>
<path class="st2" d="M96,75.5c0,0-2.3,1.3-2.1,3.9c0.2,2.6,2.6,3.8,2.6,3.8s-2,5.2-4.2,5.2c-2.1,0-1.9-0.8-3.3-0.8
	c-1.5,0-1.9,0.8-3.5,0.8c-1.6,0-5-4.1-4.9-9c0.1-4.8,3.5-5.8,4.5-5.8c2.2,0,3,0.8,3.7,0.8c0.7,0,1.4-0.9,3.8-0.9
	C93.8,73.5,95.8,74.8,96,75.5z"/>
<rect x="40.5" y="306.1" class="st1" width="4.6" height="16.1"/>
<polyline class="st5" points="73.9,81.5 38.7,81.5 38.7,336.6 90.9,336.6 "/>
<line class="st5" x1="155.1" y1="31.2" x2="287.3" y2="31.2"/>
<line class="st5" x1="204.7" y1="47.9" x2="288.1" y2="47.9"/>
<line class="st5" x1="148.6" y1="371.1" x2="10.2" y2="370.7"/>
<line class="st5" x1="53.6" y1="388" x2="10.2" y2="388"/>
<line class="st5" x1="98.7" y1="353.9" x2="9.1" y2="353.9"/>
<text transform="matrix(1 0 0 1 96.4273 340.1179)" class="st2 st3 st6">2 0 2 5 - 03/05 à 23/11</text>
<line class="st5" x1="232.5" y1="64.5" x2="290.2" y2="64.5"/>
</svg>
