<?xml version="1.0" encoding="utf-8"?>
<!-- Generator: Adobe Illustrator 25.0.0, SVG Export Plug-In . SVG Version: 6.00 Build 0)  -->
<svg version="1.1" xmlns="http://www.w3.org/2000/svg" xmlns:xlink="http://www.w3.org/1999/xlink" x="0px" y="0px"
	 viewBox="0 0 297.6 419.5" style="enable-background:new 0 0 297.6 419.5;" xml:space="preserve">
<style type="text/css">
	.st0{fill:#FFFFFF;}
	.st1{fill:url(#SVGID_1_);}
	.st2{fill:url(#SVGID_2_);}
	.st3{fill:url(#SVGID_3_);}
	.st4{fill:url(#SVGID_4_);stroke:#FFFFFF;stroke-width:0.5;stroke-miterlimit:10;}
	.st5{fill:url(#SVGID_5_);stroke:#000000;stroke-miterlimit:10;}
	.st6{fill:url(#SVGID_6_);}
	.st7{fill:url(#SVGID_7_);}
	.st8{fill:url(#SVGID_8_);}
	.st9{fill:url(#SVGID_9_);}
	.st10{fill:url(#SVGID_10_);}
	.st11{fill:url(#SVGID_11_);}
	.st12{fill:none;stroke:#000000;stroke-miterlimit:10;}
	.st13{fill:none;stroke:#FFFFFF;stroke-miterlimit:10;}
	.st14{font-family:'Impact';}
	.st15{font-size:53.4661px;}
	.st16{fill:#66584A;}
	.st17{font-size:26.9254px;}
	.st18{fill:#564A3E;}
	.st19{font-size:15px;}
</style>
<g id="Calque_1">
	<rect class="st0" width="297.6" height="419.5"/>
	<linearGradient id="SVGID_1_" gradientUnits="userSpaceOnUse" x1="23.6777" y1="361.6087" x2="275.3729" y2="56.2046">
		<stop  offset="4.741732e-07" style="stop-color:#CCB095"/>
		<stop  offset="8.729689e-02" style="stop-color:#C6AB90"/>
		<stop  offset="0.2294" style="stop-color:#B49C84"/>
		<stop  offset="0.4078" style="stop-color:#96826E"/>
		<stop  offset="0.4654" style="stop-color:#8B7866"/>
		<stop  offset="0.6665" style="stop-color:#7C6C5B"/>
		<stop  offset="0.9003" style="stop-color:#66584A"/>
	</linearGradient>
	<rect x="16.4" y="23.1" class="st1" width="264.8" height="373.3"/>
	<linearGradient id="SVGID_2_" gradientUnits="userSpaceOnUse" x1="131.5443" y1="219.7982" x2="277.793" y2="42.3418">
		<stop  offset="4.741732e-07" style="stop-color:#CCB095"/>
		<stop  offset="8.729689e-02" style="stop-color:#C6AB90"/>
		<stop  offset="0.2294" style="stop-color:#B49C84"/>
		<stop  offset="0.4078" style="stop-color:#96826E"/>
		<stop  offset="0.4654" style="stop-color:#8B7866"/>
		<stop  offset="0.6665" style="stop-color:#7C6C5B"/>
		<stop  offset="0.9003" style="stop-color:#66584A"/>
	</linearGradient>
	<rect x="127.3" y="23.1" class="st2" width="153.9" height="216.9"/>
	<linearGradient id="SVGID_3_" gradientUnits="userSpaceOnUse" x1="3.33" y1="290.2901" x2="223.7176" y2="13.1869">
		<stop  offset="2.717173e-07" style="stop-color:#564A3E"/>
		<stop  offset="0.3416" style="stop-color:#8B7866"/>
		<stop  offset="0.607" style="stop-color:#A7917B"/>
		<stop  offset="1" style="stop-color:#CCB095"/>
	</linearGradient>
	<polygon class="st3" points="16.5,252 213,23.1 218,23.1 16.5,295.4 	"/>
	<radialGradient id="SVGID_4_" cx="127.9802" cy="129.822" r="83.8121" fx="179.1226" fy="92.8764" gradientUnits="userSpaceOnUse">
		<stop  offset="8.012030e-02" style="stop-color:#EED3A6"/>
		<stop  offset="0.1772" style="stop-color:#EACFA3"/>
		<stop  offset="0.3075" style="stop-color:#DEC599"/>
		<stop  offset="0.456" style="stop-color:#CAB489"/>
		<stop  offset="0.5306" style="stop-color:#BEA97F"/>
		<stop  offset="0.5742" style="stop-color:#B8A47C"/>
		<stop  offset="0.6451" style="stop-color:#A69776"/>
		<stop  offset="0.7342" style="stop-color:#887E66"/>
		<stop  offset="0.7528" style="stop-color:#817862"/>
		<stop  offset="0.89" style="stop-color:#524F48"/>
		<stop  offset="1" style="stop-color:#000000"/>
	</radialGradient>
	<circle class="st4" cx="128" cy="130.4" r="78.2"/>
	
		<image style="display:none;overflow:visible;" width="285" height="400" xlink:href="BB66D61E.jpg"  transform="matrix(0.7767 0 0 0.7767 52.7711 68.6101)">
	</image>
</g>
<g id="verre">
	<linearGradient id="SVGID_5_" gradientUnits="userSpaceOnUse" x1="128.3729" y1="207.4917" x2="223.9333" y2="207.4917">
		<stop  offset="1.331947e-07" style="stop-color:#C1BCB4"/>
		<stop  offset="0.8479" style="stop-color:#FFF7EC"/>
	</linearGradient>
	<path class="st5" d="M128.4,121.3h95.6c0,0-0.3,28.4,0,70.3c0.3,41.9-38.6,48.9-38.6,48.9l-0.1,39.1l38.7,10.9v3.2l-93.5-0.3l0-3.2
		l37.9-10.6l0.5-39.5c0,0-39.8-9.3-40.5-47.6C128.4,152.5,128.4,121.3,128.4,121.3z"/>
	<linearGradient id="SVGID_6_" gradientUnits="userSpaceOnUse" x1="175.9552" y1="176.7041" x2="173.8186" y2="234.348">
		<stop  offset="0.1085" style="stop-color:#752214"/>
		<stop  offset="0.6522" style="stop-color:#58241A"/>
	</linearGradient>
	<path class="st6" d="M128.4,162.5l95,30.8c0,0,1.2,32-30.2,43.9c-4.5,1.7-9.4,3.4-14.2,3.4l0,0c-12.5,0-24.8-5.1-34.5-13
		c-8.6-7.1-15.9-18-16.3-33.8C128.4,162.8,128.4,162.5,128.4,162.5z"/>
	<linearGradient id="SVGID_7_" gradientUnits="userSpaceOnUse" x1="138.8266" y1="194.6738" x2="212.2493" y2="223.2405">
		<stop  offset="0.1085" style="stop-color:#752214"/>
		<stop  offset="0.9278" style="stop-color:#AB2618"/>
	</linearGradient>
	<path class="st7" d="M176.5,178.2l46.4,15c0,0,1.2,32-30.2,43.9c-4.5,1.7-9.4,3.4-14.2,3.4l0,0c-12.5,0-24.8-5.1-34.5-13"/>
	<linearGradient id="SVGID_8_" gradientUnits="userSpaceOnUse" x1="194.0966" y1="217.9764" x2="200.8265" y2="217.9764">
		<stop  offset="2.663895e-07" style="stop-color:#BB3518"/>
		<stop  offset="1" style="stop-color:#AB2618"/>
	</linearGradient>
	<polygon class="st8" points="199.7,222.5 194.1,221.8 195.2,213.4 200.8,214.2 	"/>
	<linearGradient id="SVGID_9_" gradientUnits="userSpaceOnUse" x1="202.4663" y1="209.4975" x2="209.1963" y2="209.4975">
		<stop  offset="2.663895e-07" style="stop-color:#BB3518"/>
		<stop  offset="1" style="stop-color:#AB2618"/>
	</linearGradient>
	<polygon class="st9" points="208.1,214 202.5,213.3 203.6,205 209.2,205.7 	"/>
	<linearGradient id="SVGID_10_" gradientUnits="userSpaceOnUse" x1="201.2061" y1="218.9176" x2="207.9361" y2="218.9176">
		<stop  offset="2.663895e-07" style="stop-color:#BB3518"/>
		<stop  offset="1" style="stop-color:#AB2618"/>
	</linearGradient>
	<polygon class="st10" points="206.8,223.5 201.2,222.7 202.3,214.4 207.9,215.1 	"/>
	<linearGradient id="SVGID_11_" gradientUnits="userSpaceOnUse" x1="195.3568" y1="208.5562" x2="202.0867" y2="208.5562">
		<stop  offset="2.663895e-07" style="stop-color:#BB3518"/>
		<stop  offset="1" style="stop-color:#AB2618"/>
	</linearGradient>
	<polygon class="st11" points="201,213.1 195.4,212.3 196.5,204 202.1,204.8 	"/>
	<path class="st12" d="M128.1,120.6h93.7c1,0,1.8,0.8,1.8,1.8c-0.1,6.9-0.2,32.8,0,68.5c0.3,41.9-38.6,48.9-38.6,48.9l-0.1,39.1
		l38.7,10.9v3.2l-93.5-0.3l0-3.2l37.9-10.6l0.5-39.5c0,0-39.8-9.3-40.5-47.6C128.1,151.8,128.1,120.6,128.1,120.6z"/>
	<path class="st13" d="M127.3,120.1h95.6c0,0-0.3,28.4,0,70.3c0.3,41.9-38.6,48.9-38.6,48.9l-0.1,39.1l38.7,10.9v3.2l-93.5-0.3
		l0-3.2l37.9-10.6l0.5-39.5c0,0-39.8-9.3-40.5-47.6C127.3,151.3,127.3,120.1,127.3,120.1z"/>
</g>
<g id="textes">
	<text transform="matrix(1.2522 0 0 1 16.8008 373.0068)" class="st14 st15">VINASSON</text>
	<text transform="matrix(1.2253 0 0 1 15.106 396.3828)" class="st16 st14 st17">PARIS-BERLIN-BERNE</text>
	<text transform="matrix(1.2522 0 0 1 16.3932 314.4081)"><tspan x="0" y="0" class="st18 st14 st19">14 MAI</tspan><tspan x="4.7" y="14" class="st18 st14 st19">1843</tspan></text>
</g>
</svg>
