<?xml version="1.0" encoding="utf-8"?>
<!-- Generator: Adobe Illustrator 25.0.0, SVG Export Plug-In . SVG Version: 6.00 Build 0)  -->
<svg version="1.1" xmlns="http://www.w3.org/2000/svg" xmlns:xlink="http://www.w3.org/1999/xlink" x="0px" y="0px"
	 viewBox="0 0 2267.7 1204.7" style="enable-background:new 0 0 2267.7 1204.7;" xml:space="preserve">
<style type="text/css">
	.st0{fill:#186536;}
	.st1{fill:#3A7A47;}
	.st2{fill:#104721;}
	.st3{fill:none;stroke:#104721;stroke-miterlimit:10;}
	.st4{fill:#E9DAAC;}
	.st5{fill:#EAE5C4;}
	.st6{fill:#E9E7D6;}
	.st7{fill:#FFFFFF;}
	.st8{fill:#432918;}
	.st9{fill:#B2B2B2;stroke:#000000;stroke-width:0.25;stroke-miterlimit:10;}
	.st10{fill:#C6C6C6;stroke:#000000;stroke-width:0.25;stroke-miterlimit:10;}
	.st11{fill:#706F6F;stroke:#000000;stroke-width:0.25;stroke-miterlimit:10;}
	.st12{fill:#DADADA;stroke:#000000;stroke-width:0.25;stroke-miterlimit:10;}
	.st13{fill:#9D9D9C;stroke:#000000;stroke-width:0.25;stroke-miterlimit:10;}
	.st14{fill:#878787;stroke:#000000;stroke-width:0.25;stroke-miterlimit:10;}
	.st15{fill:none;stroke:#000000;stroke-width:0.25;stroke-miterlimit:10;}
	.st16{stroke:#000000;stroke-width:0.25;stroke-miterlimit:10;}
	.st17{fill:#683C11;}
	.st18{fill:#00371E;}
	.st19{fill:#0D3F1A;}
	.st20{fill:#243E18;}
</style>
<g id="Herbe">
	<path class="st0" d="M1820.9,755.2c0,0,27.6,0.7,45.7,10.3c18.1,9.6,40.1,7.2,50.1,9.6c10,2.4,25.4,11.3,39.9,13.4
		c14.4,2.1,21,7.9,27.8,8.3c6.9,0.3,22,2.1,30.6,4.5c9.6-2.8,9.6-2.8,9.6-2.8l-1.9-19l8.1-0.2l72.3,55.7l-253.8-4.1l-11.3-9.6
		l-27.8-59.4l10.5-6.5"/>
	<path class="st1" d="M0.1,876.1L214,816.2L321.6,750c0,0-19.6,2.9-26.9-6.3c-7.3-9.2,0-43.5,0-43.5l-0.8-19.7L0,695.6v180.2"/>
	<polygon class="st0" points="357.8,854 369.8,780.4 269.4,817.2 0,891 0,935.4 210.7,927.8 	"/>
	<path class="st2" d="M0.2,927.1c0,0,39.5-7.2,41.4-3.4c1.8,3.8,7.3,3.4,17,3.4s21.5-7.7,48.6-3.4c13.8-6.2,32.5-21.2,53.2-20.6
		c24.8-11.3,35.8-7.9,44.5-9.2s32.5-8.6,36.7-10c4.1-1.4,4.1-5.3,18.3-6.8c16-8.8,26.1-18,26.1-18l6.9,1.9c0,0,0.5-7.3,27.5,2.5
		c15.6-4.8,19.4-6.7,28.4-8.2s9-1.5,9-1.5l-5.3,44.8L286,951.9L0.2,991.3V927.1z"/>
	<path class="st1" d="M2104.6,835l-30.8-24.3c0,0-17.4-6-21.1-9.2s-4.1-6-12.4-10.5c-8.3-4.6-11.6-9.6-11.6-9.6l52.4-35.6l187-11.2
		l0,273.7L2104.6,835z"/>
	<path class="st2" d="M465.9,907.2c0,0,1.4-7.1,4.4-8.5c3-1.4,1.4-7.1,7.8-8.3c6.4-1.1,12-9.6,12-9.6s10.4,4.4,0,9.6
		C479.6,895.7,477.8,894.3,465.9,907.2z"/>
	<path class="st2" d="M2267.6,966.1c0,0-8.5-21.3-20.5-27.7c-11.9-6.4-46-31.8-71.6-61.8c-25.6-30-51.9-43.2-51.9-43.2
		c-38.3-18.8-37.7-18.9-46.4-25.4c-10.3-7.7-32.7-18.6-43.6-23.2s-10.9-4.5-10.9-4.5s17.5,14.3,24,19.1c36.7,26.6,22,22.7,61.9,37.9
		c0,0,159.5,170.2,158.9,168.3C2267,1003.8,2267.6,966.1,2267.6,966.1z"/>
	<polygon class="st2" points="1506.9,851.2 1592.6,767.1 1615.3,770.1 1691.2,727.5 1685.5,792.6 1633.9,848.5 1518.6,866.6 	"/>
	<path class="st1" d="M0.2,966.5h16.2l16,14.4c0,0,64.4-22.7,74-20.4s19.5,9.9,40.3,4.1s29.8-11.9,29.8-11.9s5.7-0.7,15.4-4.1
		c9.6-3.4,14.2,1.4,14.2,1.4s34.2,3,55.7-13.1c21.5-16,34.4-17.2,34.4-17.2s2.5-5.5,7.3-6.4c4.8-0.9,20.8,2.1,20.8,2.1l36-21.3
		l202.4-48.3l141,2.7l8.4,3.3c0,0,32.2-0.5,34.6,3.8c2.4,4.2,51.6,2.5,51.6,2.5s-0.3,4,14.6,3.8c14.9-0.2,108.4-1.9,117-5.2
		s34.1-9.3,47.7-10.9c13.6-1.7,51.5-17,51.5-17s4.6,1.2,13.7-2.6c9.1-3.8,16.7-4.6,24.8-4.8c8.1-0.2,23.4-6,23.4-6s5.5-3.1,65.5-2.9
		c60,0.2,55-9.5,55-9.5l30.7-1.7c0,0,20.9,3.9,32.8,4.8c11.9,0.9,43.3,6,64.9,12.1s79.1,23.1,92.6,22.7c14.9,3.2,20.2,5,20.2,5
		l8.5,20.2l-8.9,338.6H0.2V966.5z"/>
	<path class="st3" d="M338.9,1004.8"/>
	<path class="st0" d="M1462.5,848.7c0,0-18-7-37.2-7.5c-19.2-0.5-126-27.3-152.1-28c-26.1-0.7-30.3-0.7-30.3-0.7s-32.2,3.1-1.4,10.4
		c7.1,1.7,14.5,2.4,21.8,2c22.2-1.2,41.7,3.5,42.3,3.5c0.7,0,1.8-0.2,14,4.4c9.1,3.4,36.1,6.7,49,8.2c5.5,0.6,11,1.7,16.3,3.2
		c3.8,1.1,7.4,2.2,8,2.8c1.4,1.4,10.5,4.1,34.2,4.1c23.6,0,28.3,4,28.3,4L1462.5,848.7z"/>
	<path class="st2" d="M1154.1,931.1c0,0-1.8-4.5,1.9-4.9c3.7-0.5,2.8-12.8,38.5-12.4c35.8,0.5,18.8,0.5,36.2-6.9
		c17.4-7.3,17.4-7.3,27-6.4c9.6,0.9,15.6-7.3,15.6-7.3s11-10.1,16.5,0c7.3,0,17.9-7.8,17.9-7.8s11.9-10.4,27-3.4
		c6.9,4.8,15.6-2.4,15.6-2.4s0.5-13.9,24.8-5.2c9.6-4.1,11.9-9,17.4-2.9c11-2.2,24.8-8.1,24.8-8.1s12.8-5,20.6,0
		c5.5-0.9,6.9-6,6.9-6s0.5-12.8,7.8-11.5s38.5,5.5,50.9,3.7c12.4-1.8,12.4-1.8,12.4-1.8s17.4,6.2,27.7,11.8
		c-8.9,2.5-115.3,56-115.3,56L1154.1,931.1z"/>
	<path class="st0" d="M132.8,1204.7l151.3-139.4c0,0,6.4-3,40.3,2.5c33.9,5.5,141.8-3.3,141.8-3.3s-4.3-16.1,65.9,0
		s522.2,140.2,522.2,140.2H132.8z"/>
	<path class="st2" d="M1146.1,942.8c1.6-5-1.5-10.4-6.7-11.3c-2.9-0.5-6.3-0.6-10,0.2c-11,2.3-33.9-3.8-56.8-2.8
		c-22.9,1-13.8,9.6-32.1,5.9c-18.3-3.6-47.7-14.6-114.6-10.1s-29.3,7.3-81.6,14.7c-52.3,7.3-13.4,0-73.9-4.1
		c-76.2,2.1-50,14.1-76.5,13.9c-34.1-0.2-43,5.8-43,5.8s-28.5-0.1-44.1,4.1c-15.6,4.2-20.5,0.5-35,12.4s-36.3,14.3-41.4,22.3
		s-8.4,23.5-1.7,25.4c6.7,1.8,1.3,24.3,13.6,20.9c8-2.3,15.8,0.2,20.2,2.2c2.3,1,4.9,1.1,7.2,0c2.8-1.3,7.1-2.8,11.9-3
		c7.8-0.2,22.2-8.3,24.8-9.8c0.3-0.2,0.6-0.3,1-0.5c2-0.8,9-3.5,17.8-4.3c9.1-0.9,26.7-4.3,31.1-5.2c0.7-0.1,1.3-0.2,2-0.2l58.6,2
		c0.5,0,0.9,0,1.4-0.1l86.3-10.5c0.5-0.1,0.9-0.1,1.3-0.3l55-15.7l80.6-19.6c0.6-0.1,1.1-0.2,1.7-0.2l110.6-4.5
		c0.6,0,1.2-0.1,1.8-0.3l84.4-21.6C1142.9,947.8,1145.2,945.6,1146.1,942.8L1146.1,942.8z"/>
	<path class="st2" d="M334.5,1097.2c0,0,112.1,107.6,140.8,107.6s413.1,0,413.1,0S630.8,1103.6,534,1097.2
		S334.5,1097.2,334.5,1097.2z"/>
	<path class="st1" d="M1021.2,1204.7c0,0-352.3-101.3-398-110.4c-45.7-9.1-82.9-13.7-82.9-13.7s-13.1-15.6-6.3-21.1
		c6.8-5.5,28.8-20.2,38-20.2c9.2,0,26.6-10.1,26.6-10.1l18.3-4.6c0,0,8.7-7.3,20.9-7.3c12.1,0,38-4.6,51.7,0c13.6,4.6,28.3-2,28.3-2
		s55-10.8,63.3-8c8.3,2.8,72.4-14.7,96.3-26.6s93.5-11.9,93.5-11.9s144.9-22,157.7-28.4s20.2-8.7,20.2-8.7l139.4-14.2
		c0,0,150.4-24.8,169.6-32.1c19.3-7.3,156.8-48,178.8-45.5c13.8-9.5,17.4-25.2,22.9-32c5.5-6.8,21.1-28.8,49.5-24.2
		c28.4,4.6,85.3,36.5,96.3,37c11,0.6,44.9-0.4,70.6,0.6c25.7,0.9,68.8,9.2,75.2,9.2c6.4,0,24.8-7.3,41.3-4.6
		c16.5,2.8,46.8,6.4,54.1,6.4s54.1,1.8,54.1,1.8s11.9,0.9,21.1,12.8s80.7,78.8,103.6,106.4c22.9,27.5,42.6,46.8,42.6,46.8v113.7v91
		H1021.2z"/>
	<path class="st2" d="M2001.3,1204.7c3.7-13.5,99-40.6,99-40.6s16.5-19.3,59.6-31.2c0,0,75-29.3,107.7-19.3v91H2001.3z"/>
	<path class="st2" d="M1752.2,1204.7l204.5-91.3l97.8-50.2c0,0-140.9-29.2-173.9-22c-98.4,46.8-214.8,162.3-214.8,162.3"/>
	<path class="st0" d="M1032.2,1194.3c0,0,323.5-65.3,367.6-86.3c44.1-21,33.1-21.9,33.1-21.9s-204.5-27.9-231-35.5
		C1167.9,1061.3,1061.6,1191.5,1032.2,1194.3z"/>
	<path class="st2" d="M1851,938.6c0,0-20.2-33.9-67.8-51.3s-36.7-31.2-36.7-31.2l-11-11c0,0,2.8-9.2-3.7-12.8
		c-6.4-3.7-44.9-11-44.9-11l62.3,60.5l153.1,103.6L1851,938.6z"/>
	<path class="st2" d="M1866.5,859.7c0,0,42.2-2.8,91.7,43.5s73.3,46.3,73.3,46.3l42.2,31.2l-87.1-41.3L1866.5,859.7z"/>
	<path class="st2" d="M1981.1,903.3c0,0,75.2,34.4,109.1,43.5c33.9,9.2,64.2,21.1,84.3,33.9c20.2,12.8,20.2,12.8,20.2,12.8
		l-176.9-65.1L1981.1,903.3z"/>
	<path class="st2" d="M1672.2,920.2c0,0-42.2-44-44-37.6c-1.8,6.4-4.6,13.8-4.6,13.8s-14.7-3.7-22.9-9.2s-5.5,16-5.5,16l-9.2-2.2
		c0,0-67.8,67.7-99.9,75C1454,983.5,1672.2,920.2,1672.2,920.2z"/>
	<path class="st2" d="M1268.4,939.5c0,0,131.5,1.8,160.8,3.7c29.3,1.8,29.3,1.8,29.3,1.8s-57.8,19.3-99.9,12.8
		c-42.2-6.4-48.6-11.9-80.7-12.8C1245.9,944.1,1268.4,939.5,1268.4,939.5z"/>
	<path class="st2" d="M627.4,1044.2c0,0,226,2.4,276.4,4.9s50.4,2.4,50.4,2.4s-99.3,25.7-171.7,17.1s-83.5-15.9-138.6-17.1
		C588.7,1050.3,627.4,1044.2,627.4,1044.2z"/>
	<path class="st0" d="M1866.9,1035.1c0,0-204-8.5-235.5,0.9s-25.5,12.3-25.5,12.3s107.7,65.3,120.5,77.3
		C1748.9,1123,1849.3,1031.6,1866.9,1035.1z"/>
	<path class="st0" d="M2122.7,859.7c0,0,35.8,44.4,66,69.7c30.3,25.2,33,29.8,33,29.8s-96.3-35.8-115.5-49.7s-98.1-74.4-98.1-74.4
		s55.5,9.6,73.3,9.6C2099.3,844.6,2122.7,859.7,2122.7,859.7z"/>
	<path class="st0" d="M845.7,1024.7c0,0,1.4-28.8,16.5-30.9c15.1-2.1,53.6-11.7,61.9-13.1c8.3-1.4,48.1-3.9,55-4s-55,17.7-66.7,30.1
		c-11.7,12.4-66.7,33.2-66.7,33.2V1024.7z"/>
	<path class="st2" d="M579.3,863.4c12.6-1.6,18-2,18-2c22.5-7.9,13-4.5,29.8-6.3c16.8-1.8,76.8-6.6,76.8-6.6l8.4,3.3
		c0,0-42.6,50.2-51.3,52.3c-8.7,2.1-9.2,7.2-15.4,13.1s-14.2,0-14.2,0s-15.7,7-25.4,0.3c-6.9-4.7-9.9-4.4-11.1-3.4
		c-1.8,1.3-3.7,2.6-5.8,3.2c-3.3,0.8-8.1,1.4-14.3,0.6c-12.4-1.7-16.5,1-22.2,5.9c-5.7,4.9-34.2,15.4-43.9,20.6s-47.9,7.6-47.9,7.6
		s-11.5,1-5.7-5.5s15.2-10.7,15.2-10.7s-0.7-15.1,14.4-21c0,0,9.6-17.9,30.3-23.7c0,0,11-28,29.6-29.3
		C563.1,860.5,558,859,579.3,863.4z"/>
	<path class="st2" d="M0.2,1086.6c0,0,38.2-48.2,43-16.2c17.2-10.6,20.6-23.8,26.1-13.1c5.5,10.7,46.1-53.2,46.1-53.2
		s22-28.3-13.8,53.2c28.2-18.8,57.1-67.8,64.6-73.9s-17.2,41.6-66,137.6c5.5,6.6,83.2-88.4,83.2-88.4s19.3-26.4,0,15.6
		c11.7-6.2,56.4-58.4,41.3-31.6c-15.1,26.8-23.4,46.8-28.2,61.9c-4.8,15.1,92.1-97,101.8-110c9.6-13.1,13.1-11-4.1,47.4
		c-11.5,39-14.1,63.6-29.6,92.8c-14.6,27.4-36.5,50.3-62.8,66.9c-39,24.6-48.5,29.3-48.5,29.3H0.2V1086.6z"/>
	<path class="st2" d="M424.4,927.8c0,0,2.5,24.5-19.6,17.9c0,0,2.4-15.4,8.1-20.6c5.7-5.3,15.4-20.2,15.4-20.2s12.8-5.7,8.5,3.7"/>
	<path class="st0" d="M981.8,900.2l-6.7,1.8c-6.4,1.7-6.3,10.9,0.1,12.4c2.6,0.6,5.7,1.2,9.3,1.7c23.8,3.2,46.3,7.6,46.3,7.6
		s31.2,1.4,21.5-23.5c-7.2-18.7,16.5-18,28.8-16.4c5.9,0.7,12-0.2,17.3-3.2c7-4,10.7-9.8-15.8-14c-21.8-3.4-37.7,3.7-48.2,11.7
		c-14.9,11.3-32.1,19.1-50.6,21.7L981.8,900.2z"/>
	<path class="st2" d="M2214.6,763.6c-4,1.1-8.4,4-12.3,7c-7.6,5.9-10.2,13.7-18.9,17.3c-0.5,0.2-16,4.4-16.5,4.5
		c-7.5,2.2-15.3,9.5-34.9,36.2c11.9-5.3,35.4-15,46.6-13.3c13,2,19.5,7.7,27.4-12c4.1-10.1,12.4-19.9,22.2-26.4
		c22.8-15.1,35.9-15.6,35.9-15.6S2238.9,756.7,2214.6,763.6z"/>
	<path class="st0" d="M2211.4,872.4c1.5-1.5,3.1-3,4.7-4.4c2.9-2.6,8.5-8.3,11.5-16.6c4.1-11.5,11.9-36.7,17.6-46.8
		c5.8-10.1,5.8-10.1,5.8-10.1s-11,34.8-11,45.4s17.2,46.3,20.3,65.6c3.1,19.3,3.1,19.3,3.1,19.3s-11-35.3-21.1-41.3
		c-10.1-6-10.7-12.7-42,0L2211.4,872.4z"/>
	<path class="st2" d="M324.5,1067.8c0,0,103,5.7,119.8,2.6c16.8-3.1,21.9-5.9,21.9-5.9s-0.6-40.6,11.8-61.5
		c12.4-20.9,12.4-20.9,12.4-20.9s-25.7,6-88.5,30.3C361.6,1034.8,399.6,1037.1,324.5,1067.8z"/>
	<path class="st2" d="M294.7,697.1c0,0-17.4,2.2-22.5,10.5c-8.7,1.8-38.5,3.2-56.8,22c-3.7,1.4-7.3,4.1-18.3,0
		c-10.1-0.9-24.8-3.7-28.9,12.4c-5,6.4,0.9,13.8-2.8,20.2c-3.7,6.4-2.8,13.3-2.8,13.3l2.8,5c0,0,31.2-1.4,47.2-5.5
		c16-4.1,28.4-13.8,44.5-20.2c16-6.4,37.6-11,37.6-11V697.1z"/>
	<path class="st0" d="M0.1,674.8l293.8-3.9v19.7c0,0-9.8-5.3-13-4.6c-3.2,0.7-7.1,6.9-12.6,4.6s-13.5,3.9-16.5,2.5
		c-3-1.4-6-10.3-15.4-5.3c-8.5-0.2-10.8,3.2-14,1.8c-3.2-1.4-3.2-3.4-12.1,2.1c-3.2,0.5,3-9.9-14.4-0.7c-6-3.9-4.6-6.9-14.2,3.4
		c-1.8,0.5-1.4-11-12.6,1.6c-2.5,0-2.5-15.1-14.2,0c-6,0.2-79.3,2.8-123.8,15.8c-29.6,1.1-30.7,1.8-30.7,1.8L0.1,675V674.8z"/>
	<path class="st0" d="M82.7,825c4.5,0.4,8.9,1.3,13.2,2.6c4.1,1.3,10.1,2.5,11.8-0.6c2.6-4.8,1.7-17.9,3.3-21.1
		c3.3-6.9,3.4-10.3-5.3-15.3c-8.8-5-11.2-2.6-19.8-3.3c-6.8-1.9-4.5-2.5-15-0.5c-1.9,0.4-4,0.2-5.8-0.4c-2.9-1-5.7-2-13.3,2.9
		c-5.3,6.2-21,2.6-24.6,4.8c-3.4,2.1-3.7,0.8-14.2,10.7c-1.9,1.8-4.1,3.4-6.5,4.5c-4.9,2.2-6.3,1.4-6.3,1.4L0,831.4
		c0,0,5.7,2.6,15.4,1s39-7,51.9-7.7C72.9,824.3,78.4,824.6,82.7,825z"/>
	<path class="st2" d="M25.1,747.4c0,0,4.1-12.8,14.7-16.5s18.8-4.6,16.7-2.3s-8.5,7.9-2.5,8.8s28.4-9.4,42.2-10
		c13.8-0.6,32.5,4,32.5,4s-12.8,2.8-27.5,6S83.3,754.3,71,754.3S35.2,745.1,25.1,747.4z"/>
	<path class="st2" d="M541.4,682.7c0,0-36.8,3.8-56.4,10c-17.9,5.7-35.3,4.7-57.4,21c-5.4,3.9-11.2,7.3-17.3,10
		c-22.8,10-40.8,16.8-56,19.2c-17,2.7-66.9,12.1-98.1,40.8c-2.2,2-4.6,3.9-7.2,5.5c-10.4,6.1-12.3,4.6-25,12.2
		c-3.6,2.1-13,9-16.8,10.7c-6.4,2.8-20.2,5.9-35.1,10.3c-19.6,5.8-26.8,10.7-35.4,11.3c-6.1,0.5-11.9,2.7-29,7.9
		c-15.7,4.7-33,13.2-49.4,12.5c-11.9-0.5-28,2.9-58.4,13.7l0.1,42.6c0,0,30.4-14.4,66.1-15.1c24.1-1.4,14.1-4.8,36.4-8.3
		c19.7-3,28.4-9.8,54.7-17.2c5.4-1.5,12.7-5.9,19.6-7.2c13.7-2.6,27.8-4.8,49.5-8.5c3.5-0.6,27.6-6.2,30.9-7.6
		c24.8-10.7,51.3-21.6,80.6-42.1c14-9.8,29.4-17.4,45.8-21.8c15.1-4,24.5-4.5,24.5-4.5l145.8-49.5L541.4,682.7z"/>
</g>
<g id="Ciel">
	<path class="st4" d="M0.2,0l2267.4,0.1v612c0,0-3-4.5-5.4-1.4c-2.4,3.1-5.8,10.1-6.7,9.6c-0.9-0.5,0.5-7.6,0.5-7.6
		s-4.8,4.3-5.8,4.1c-1-0.2-2.1-2.2-3.3-1.4s-2.8,4.1-4.1,3.8s-5.7,5.5-5.7,5.5s-3.6-6.2-5-5.5s-7.2,12.9-9.3,11
		c-2.1-1.9-4.6-16-11.9,1.9c-1.5-3.3-1.2-10.5-2.2-10.1s-3.4,0.2-4.1,0.2c-0.7,0-6.7,9.3-6.7,11.5c-2.1-1.9-5.7-5.2-6-3.3
		c-0.3,1.9-1.5,6.9-2.6,6.7c-1-0.2-3.8,0-3.8,0s-3.1-17.2-7.6-0.7s-5.2,5.7-5.2,5.7v-10c0,0,0.2-5-3.6-5.8
		c-2.6,2.8-5.7,12.5-7.7,12.2s-4.1-1.5-4.1-2.8s1.2-4.8-0.2-4.8s-5.5,1.4-11,9.8c-5.5,8.4-2.8-2.6-2.8-2.6s-1.4-5.8-10.8,9.1
		c-1.5,1.2-1.4-8.3-9.1,0c-3.4-2.8-5-7.4-11.5-1.9c-5.8,6-10.8,12.7-10.8,12.7s-3.3,1-4.8-1.4c-1.5-2.4-6.9-5.2-8.6,2.6
		s-1.7,7.7-1.7,7.7l-1.5-4.6c0,0-6.4,0.3-8.4-2.6c-3.6,0.9-6.5,9.8-8.4,9.6c-1.9-0.2,0-27.5-13.6,2.6c-6.9,0.7-10.5,7.2-15.5,14.1
		c-2.9-1.4-8.8-7.2-17.5,10.1c-9.8,1.2-7.6,0.7-7.6,0.7l-0.9-5.8c0,0-32.7-4.3-39-4c-6.4,0.3-14.4-8.6-33.9-6
		c-2.4,0.7-6.9-3.6-6.9-3.6l-11.5,0.2c0,0-5.7-7.4-17.9,0c-4,2.6-14.4,1-16.2-1c-1.7-2.1-5.2-22.3-5.2-22.3l-21-1l-5-55
		c0,0-157.5,1.4-192.2,1.5c-34.7,0.2-229.7,5.2-231.4,2.5c-1.7-2.7-6.7-15.2-22.9-16.4c-16.2-1.2-64.6,1.4-65-0.9
		c-0.5-2.3-13.8-22-13.8-22l-34.2,0.2l0.2-22.2l5-0.2c0,0-4.5-5-6.1-8.7c-1.5-3.2-4.3-5.7-7.8-5.9c-0.8-0.1-1.6,0-2.4,0.1l-1.4,0.2
		c-2.3,0.3-4.5,1.4-6,3.1c-0.1,0.2-0.2,0.3-0.4,0.5c-0.7,0.9-2.5,8-6.4,10.8c6,0,6,0,6,0l-0.7,23.1l-12.4,0.2l-18.3,21.2l-1.8,0.5
		L1244,568h-11l-0.5,17.8h-2.5l-2.6-14.5l-19.5-0.5l-1.6-2.9c-0.5-0.9-1.5-1.5-2.5-1.5l0,0c-1.7,0-3.1,1.3-3.2,2.9l-0.1,1.2
		l-4.3,0.1V567c-0.9-0.2-3.3-0.1-3.3-0.1l0.2,2.8l-5.7-0.1l-0.2-3.1l-3.2,0.2v3.4l-7.8,10.5l-28.4-27l-22.8,0.1l-0.6-10.3l-2.8-0.4
		l0.3-6.1l-3.9-0.5l-0.5,6.4l-4.4,0.2l-0.5,10.3l-52,0.3l-16.7,20.3h-28.7v-5.5l-5.8-0.2l0.3,13.2l-17.2-20.4l-3.7,3.6l-51.6-0.5
		l-3.2-4.4L918.8,576l0.1-8.7l-11.3,0.2l0.3,17.2l-27.6,0.2l0.1-11.2l-4.2,0.3l-0.2-3.9l-2.5,0.2l0.1,3.2l-2.6-0.2v-3.7
		c0,0-3-0.5-3,0.2c0,0.7-0.2,3.4-0.2,3.4l-3.7,0.2l-0.2,10.5l-6.3,0.2l0.3-14.6l-3.7-0.1l0.8-4.2l-7.1-0.6l0.4,4.8l-3.3-0.2
		l-0.3,15.1l-99.2-0.5l-2.3,5.8l-4.8-0.1l-0.4-14.7l-8.3-0.2V590l-22.7-0.5l-4.6-6.2l-8.1,5.5l-0.4,6l-115.4-0.4l-33.6,4.8
		c0,0-10.3,1.6-9.8,9.5c-12.6,0.5-39.4,2.1-39.4,2.1l-0.2-8.6h6.1c0,0-7-5.8-10.7-13c-2.8-2.9-3.9-8-21.3-4.8c-4.1,3-5.2,5-6.4,6.5
		c0,0-1.7,4.3-6,7.7c-1.9,2.2-4.3,3.5-4.3,3.5h7.7l-1.1,42l-142.2,4.1l0.1-3.9l-23.3,0.2v30.3c0,0-86.6,1.4-101.4-1.4
		c-16.5,0.7-67.4,3.1-76,6.9C102.4,682.2,8,688.1,0,679.9c0.1-9,0-16.7,0-16.7L0.2,0z"/>
	<path class="st5" d="M655,595l3.1-3.1C1018.9,227,1739.5,0.3,2267.6,0.3l0,0v612c0,0-3-4.5-5.4-1.4c-2.4,3.1-5.8,10.1-6.7,9.6
		c-0.9-0.5,0.5-7.6,0.5-7.6s-4.8,4.3-5.8,4.1c-1-0.2-2.1-2.2-3.3-1.4c-1.2,0.9-2.8,4.1-4.1,3.8s-5.7,5.5-5.7,5.5s-3.6-6.2-5-5.5
		s-7.2,12.9-9.3,11c-2.1-1.9-4.6-16-11.9,1.9c-1.5-3.3-1.2-10.5-2.2-10.1s-3.4,0.2-4.1,0.2c-0.7,0-6.7,9.3-6.7,11.5
		c-2.1-1.9-5.7-5.2-6-3.3c-0.3,1.9-1.5,6.9-2.6,6.7c-1-0.2-3.8,0-3.8,0s-3.1-17.2-7.6-0.7c-4.5,16.5-5.2,5.7-5.2,5.7v-10
		c0,0,0.2-5-3.6-5.8c-2.6,2.8-5.7,12.5-7.7,12.2s-4.1-1.5-4.1-2.8c0-1.2,1.2-4.8-0.2-4.8s-5.5,1.4-11,9.8c-5.5,8.4-2.8-2.6-2.8-2.6
		s-1.4-5.8-10.8,9.1c-1.5,1.2-1.4-8.3-9.1,0c-3.4-2.8-5-7.4-11.5-1.9c-5.8,6-10.8,12.7-10.8,12.7s-3.3,1-4.8-1.4
		c-1.5-2.4-6.9-5.2-8.6,2.6s-1.7,7.7-1.7,7.7l-1.5-4.6c0,0-6.4,0.3-8.4-2.6c-3.6,0.9-6.5,9.8-8.4,9.6c-1.9-0.2,0-27.5-13.6,2.6
		c-6.9,0.7-10.5,7.2-15.5,14.1c-2.9-1.4-8.8-7.2-17.5,10.1c-9.8,1.2-7.6,0.7-7.6,0.7l-0.9-5.8c0,0-32.7-4.3-39-4
		c-6.4,0.3-14.4-8.6-33.9-6c-2.4,0.7-6.9-3.6-6.9-3.6l-11.5,0.2c0,0-5.7-7.4-17.9,0c-4,2.6-14.4,1-16.2-1
		c-1.7-2.1-5.2-22.3-5.2-22.3l-21-1l-5-55c0,0-157.5,1.4-192.2,1.5s-229.7,5.2-231.4,2.5c-1.7-2.7-6.7-15.2-22.9-16.4
		c-16.2-1.2-63.9,1.1-65-0.9c-1.2-2.1-13.1-21.1-13.1-21.1h-34.6l0.1-22.9l5-0.2c0,0-4.5-5-6.1-8.7c-1.5-3.2-4.3-5.7-7.8-5.9
		c-0.8-0.1-1.6,0-2.4,0.1l-1.4,0.2c-2.3,0.3-4.5,1.4-6,3.1c-0.1,0.2-0.2,0.3-0.4,0.5c-0.7,0.9-2.5,8-6.4,10.8c6,0,6,0,6,0l-0.7,23.1
		l-12.4,0.2l-18.6,21.5l-1.5,0.1l-0.2-17.6h-11l-0.4,17.5h-2.5l-2.7-14.3L1208,571l-1.6-2.9c-0.5-0.9-1.5-1.5-2.5-1.5l0,0
		c-1.7,0-3.1,1.3-3.2,2.9l-0.1,1.2l-4.3,0.1v-3.8c-0.9-0.2-3.3-0.1-3.3-0.1l0.2,2.8l-5.7-0.1l-0.2-3.1l-3.2,0.2v3.4l-7.8,10.5
		l-28.4-27L1125,554l-0.6-10.3l-2.8-0.4l0.3-6.1l-3.9-0.5l-0.5,6.4l-4.4,0.2l-0.5,10.3l-52,0.3l-16.7,20.3h-28.7v-5.5l-5.8-0.2
		l0.3,13.2l-17.2-20.4l-3.7,3.6l-51.6-0.5l-3.2-4.4l-15.4,15.8l0.1-8.7l-11.3,0.2l0.3,17.2l-27.6,0.2l0.1-11.2l-4.2,0.3l-0.2-3.9
		l-2.5,0.2l0.1,3.2l-2.6-0.2v-3.7c0,0-3-0.5-3,0.2s-0.2,3.4-0.2,3.4l-3.7,0.2l-0.2,10.5l-6.3,0.2l0.3-14.6l-3.7-0.1l0.1-3.5
		l-5.5-0.5l-0.5,3.9l-3.3-0.2l-0.3,15.1l-99.2-0.5l-2.3,5.8l-4.8-0.1l-0.4-14.7l-8.3-0.2v15.1l-22.7-0.5l-4.6-6.2l-8.1,5.5l-0.4,6"
		/>
	<path class="st6" d="M1368.4,586.4c256.5-173.9,545.3-326.6,899.1-369.4l0,0v395c0,0-3-4.5-5.4-1.4c-2.4,3.1-5.8,10.1-6.7,9.6
		c-0.9-0.5,0.5-7.6,0.5-7.6s-4.8,4.3-5.8,4.1c-1-0.2-2.1-2.2-3.3-1.4s-2.8,4.1-4.1,3.8s-5.7,5.5-5.7,5.5s-3.6-6.2-5-5.5
		s-7.2,12.9-9.3,11c-2.1-1.9-4.6-16-11.9,1.9c-1.5-3.3-1.2-10.5-2.2-10.1s-3.4,0.2-4.1,0.2c-0.7,0-6.7,9.3-6.7,11.5
		c-2.1-1.9-5.7-5.2-6-3.3c-0.3,1.9-1.5,6.9-2.6,6.7c-1-0.2-3.8,0-3.8,0s-3.1-17.2-7.6-0.7s-5.2,5.7-5.2,5.7v-10c0,0,0.2-5-3.6-5.8
		c-2.6,2.8-5.7,12.5-7.7,12.2c-2.1-0.3-4.1-1.5-4.1-2.8s1.2-4.8-0.2-4.8s-5.5,1.4-11,9.8c-5.5,8.4-2.8-2.6-2.8-2.6
		s-1.4-5.8-10.8,9.1c-1.5,1.2-1.4-8.3-9.1,0c-3.4-2.8-5-7.4-11.5-1.9c-5.8,6-10.8,12.7-10.8,12.7s-3.3,1-4.8-1.4
		c-1.5-2.4-6.9-5.2-8.6,2.6s-1.7,7.7-1.7,7.7l-1.5-4.6c0,0-6.4,0.3-8.4-2.6c-3.6,0.9-6.5,9.8-8.4,9.6c-1.9-0.2,0-27.5-13.6,2.6
		c-6.9,0.7-10.5,7.2-15.5,14.1c-2.9-1.4-8.8-7.2-17.5,10.1c-9.8,1.2-7.6,0.7-7.6,0.7l-0.9-5.8c0,0-32.7-4.3-39-4
		c-6.4,0.3-14.4-8.6-33.9-6c-2.4,0.7-6.9-3.6-6.9-3.6l-11.5,0.2c0,0-5.7-7.4-17.9,0c-4,2.6-14.4,1-16.2-1s-5.2-22.3-5.2-22.3l-21-1
		l-5-55c0,0-157.5,1.4-192.2,1.5c-34.7,0.2-229.7,5.2-231.4,2.5c-1.7-2.7-6.7-15.2-22.9-16.4"/>
	<path id="nuage3" class="st7" d="M34.6,124.7c-48.2-11.3,264.8,67.9,402.3,38.3c147.2-31.7,369,20.2,369,20.2
		s-247.8-43.6-258.1-64.2c-4.8-9.6-1.6-18.7,3.2-25.7c10.5-15.3,11.2-35.6,0.3-50.5c-14.3-19.6-44.3-33.1-106.8,2
		C347,99.5,364.2,117,364.2,117s10.3-72.2-43.3-68.1s0,59.8,0,59.8S163.6,154.9,34.6,124.7z"/>
	<path id="nuage2" class="st7" d="M1026.8,296.8c12.9,5.2,26.5,8.6,40.4,9.9c32.3,3.1,104.9,16.3,163,6.2c83.2-14.4,273,1.9,273,1.9
		s-73.7-43-141.4-44.9c-52.3-1.5-23.5-4.9-10.3-24.2c24.5-35.8,12.8-15.3,17.3-25.3c5.4-12.1-20.5-14.7-51.7-11.2
		c-91.1,10.3-53.8,44.6-53.8,44.6s-89.7-35.6-145.4,8.4c-55.7,44-214.1,9.4-214.1,9.4L1026.8,296.8z"/>
	<path id="nuage1" class="st7" d="M1615.4,509.3c0,0,202-22.2,256.1-4.9c54.1,17.3,75.1,5.5,75.1,5.5s-39.6-7-44.4-21.8
		c-4.8-14.8-21.2-62.4-49-32c-21.8,23.9-17.8,19.1-17.8,19.1s-15.5,5.5-15.8-8.7c-0.3-14.3-26.4-47.9-33.6-12.9
		c-8.4,40.4-10,12.2-10,12.2s-26.4-56.2-56.6-27.7c-23.8,22.4,11.8,38.4,11.8,38.4S1640.1,513.7,1615.4,509.3z"/>
</g>
<g id="Arbres">
	<path class="st2" d="M2044,774.6c0,0-8.8,9.3-15.3,6.7s-10.1,1.2-11.9-21c-1.7-22.2-1.5-31.6-5-40.1s-4.1-20.3-1-21.8
		c3.1-1.5,4-2.5,10.7-2.2c2.1-3.8,7.6-17,17.5-10.1c4.3-6.1,7.4-13.1,15.5-14.1c3.3-6.9,11-25.4,12.8-5.1c-0.2,4.1,1.7,2.1,1.7,2.1
		s4.9-10,7.6-9.2c2.6,0.8,2.3,2.1,7.9,2.3c0.4,0.3,2.1,4.9,2.1,4.9l2.2-9.3c0,0,2.9-8.9,8.1-1c0.5,1.4,4.9,1.4,4.8,1.4
		c-0.1,0,13.7-26.9,22.3-10.8c1-1,6.1-7.6,8.3-0.3c0.2,1.1,4.9-5.6,4.9-5.6s9.7-12,6.1,0c-0.6,2.5,1.3,2.9,3.1-0.3
		c2.1-3.4,6.3-9,9.1-9.8c2.8-0.8,3.4-0.8,2.7,2.4c-0.8,3.2,0.7,3.6,0.7,3.6s1.4,0.8,3.1,1.2c1.7,0.4,6.4-11.3,6.4-11.3
		s1.5-4.1,3.8,0c2.3,4.1,1.4,12.3,1.4,12.3s-0.4,12.1,3.5,0.5s3.9-10.9,3.9-10.9s1.5-4.1,3.4,1.1c1.8,5.2,1.7,6.9,1.7,6.9
		s3.3-0.3,3.9-0.5c0.6-0.2,0.3-14.1,8.5-3c0.3-4.2,6.6-12.1,6.6-12.1s3.4-2.4,4.7,0c1.3,2.4,1.8,10.5,1.8,10.5s3.2-11.8,7.6-8.5
		c4.4,3.2,3.7,8.9,6,5.3c2.3-3.6,7.4-17.6,12.5-4.1c2.8-5,6.2-6.1,6.2-6.1s3-6.5,6.6-2.5c1.8-0.6,9.8-10.8,5.4,0.5
		c0.3,2.8,2.1,1.1,2.1,1.1s3.9-13.1,9.6-6.8c0,9.6,0,130.1,0,130.1s-26.7,6-49.2,6.4c-22.5,0.5-36.2,12.4-36.2,12.4
		s-16.7-3.9-35.1,4.1c-18.3,8-19.9-1.8-19.9-1.8s-1.8-3.7-15.8-0.9c-14,2.8-22,1.1-29.1,0C2075.1,760,2070.9,770.7,2044,774.6z"/>
	<path class="st8" d="M2061.7,672c0,0-16.8,33.7-12.5,45.9C2049.7,708.8,2052.8,697.4,2061.7,672z"/>
	<path class="st8" d="M2032.1,781.7c0,0,6-49-9.5-70.5c10.7,17.2,14.1,25.8,13.2,69.4C2032.1,781.7,2032.1,781.7,2032.1,781.7z"/>
	<path class="st8" d="M2158,670.5c0,0,6.9-8.1,10.8-26.8C2165.5,653.4,2163.8,657.9,2158,670.5z"/>
	<path class="st8" d="M2149,652.7c0,0-22.7,41.9-15.6,61.5C2133.9,704.3,2137.9,676.5,2149,652.7z"/>
	<path class="st8" d="M2107.7,761.8c0,0-15.6-31.9,0-104.8l-1.2,16.9c-0.1,1.4-0.2,2.7-0.4,4c-1,9.1-5.2,54.1,6.7,82.9L2107.7,761.8
		z"/>
	<path class="st8" d="M2206.1,628.3c0,0-6.7,15.6-5.7,26.3s4.1,24.8,4.1,24.8S2200.4,655.7,2206.1,628.3z"/>
	<path class="st8" d="M2182.2,759.8c0,0,15.4-82.5,9.2-101.7c-6.2-19.3-6.2-19.3-6.2-19.3s3.1,13.6,3.8,20.3s1,14.1,0.5,22.5
		c-0.5,8.4-4.6,46.1-11.3,77.5C2182.2,759.8,2182.2,759.8,2182.2,759.8z"/>
	<path class="st8" d="M2255.6,698.6c0,0,0-0.5-0.1-1.5c-0.4-8.2-1.8-46.9,2.6-57.9c5-12.4,5-12.4,5-12.4S2256.3,647.9,2255.6,698.6z
		"/>
	<path class="st8" d="M2243.5,745.7c0,0-1.9-51.9-2.7-58.4c-0.8-6.5-4.5-25.3-6.9-32.7c-2.3-7.4-3.4-9.5-3.4-9.5s3.6,3.1,9.9,24.4
		c3.1,10.4,7.1,35.5,7.7,74.9C2243.2,745.7,2243.5,745.7,2243.5,745.7z"/>
</g>
<g id="Citadelle">
	<polyline class="st9" points="776.4,633.6 812.7,624.2 907.5,624.2 907.5,591.3 1030.6,591.3 1016.4,609.4 1016.1,669.7 
		776.4,633.6 	"/>
	<polygon class="st10" points="579.2,658.4 579.2,605.5 739.8,603.4 739.8,636.6 621,657.4 	"/>
	<polygon class="st11" points="1876.6,676.7 1867.3,680.2 1842,680.9 1691.6,689.2 1597.7,691.4 1592.3,677.2 1556.3,685.1 
		1504.2,681.9 1487.6,632.8 1432.5,632.8 1432.7,614.2 1523,613.1 1522.5,672.5 1870.2,657 	"/>
	<polygon class="st10" points="1870.2,657 1522.5,672.5 1522.5,613.1 1840,608.9 1854.5,653.1 1869.5,653.7 	"/>
	<path class="st9" d="M1735.1,692.2l243.8,5l14.2,100.3c0,0-1.2,0.3-10.6-0.5c-8.7-0.7-8.8-5.1-29.8-8.9c-6.9-1.2-13.6-3.6-19.8-6.9
		c-4.1-2.1-8.2-4.1-14.9-4.9c-12.9-1.6-2.8-0.3-34.6-4.6c-2.6-0.4-5.1-1-7.5-2.1c-8.2-3.5-21.8-10.3-55.1-14.6l-1.1-4.6
		c0,0,0.4-11.3-15.7-8.6s-56.4,2.4-56.4,2.4l-8.7-6.6L1735.1,692.2z"/>
	<polygon class="st12" points="1073.7,682.3 1073.7,609.4 1198.1,606.6 1198.1,658.3 1127.4,681.5 	"/>
	<polygon class="st10" points="1127.6,681.5 1127.6,622.7 1147.7,621.8 1148.4,660.2 	"/>
	<polygon class="st13" points="1131,701.6 1131,717.7 1178.5,724.9 1200.8,722.9 1199.1,663.8 1162.2,668.6 	"/>
	<polygon class="st12" points="1127.6,681.5 1138.6,660.5 1199.1,658.2 1199.1,665.8 1174.6,667.1 1163.4,695.1 	"/>
	<line class="st12" x1="1174.6" y1="667.1" x2="1138.6" y2="660.5"/>
	<path class="st9" d="M552.2,598.2l27.1-3.8v64c0,0,330.1-8.1,341.1-8.1c1.7,1.7,4.6,3.7,3.4,11.9c0.4,6.9,0.4,6.9,0.4,6.9l6.8,19.4
		l-380.4,6.7L552.2,598.2z"/>
	<path class="st12" d="M582.9,694.3c0,0,220.2-10.1,349.4-5.8c185.7-8.3,190.5-8,190.5-8s35.1,6,50.2,22.5
		c-17.2-0.7-17.2-0.7-17.2-0.7l-59.8-5.2l-51.2,24.2l-540.8,22.4l3-23.9l0.8-5.5c0,0-2.4,17.9,20.6,18.6c23,0.7,468.3-19.9,514-21.7
		c3.2,13,3.2,13,3.2,13s-241.8,9.1-294.7,13.3c-52.9,4.2-197.2,9.7-223.9,10.4c-0.2,19.6-0.2,19.6-0.2,19.6l-2.1-0.3
		c0,0-23.7-2.8-20.3-27.8c3.4-25.1,3.4-25.1,3.4-25.1l20.6-27.8l27-6.9V672l27.6,16.5V694.3l-27.6,7.6L534,685"/>
	<polygon class="st13" points="477.1,743.4 555.3,737.6 1059.2,719.8 1075.7,783 693.6,807.8 672.6,771.4 477.1,778.2 	"/>
	<path class="st0" d="M1729.5,750.9"/>
	<path class="st13" d="M1597.6,690.8l94-1.6l-0.4,38.3l-67.9,38.1C1623.3,765.6,1592.7,712.6,1597.6,690.8L1597.6,690.8"/>
	<polyline class="st12" points="1596.2,685.1 1595.2,676.6 1556.3,685.1 1556.3,693.3 	"/>
	<path class="st12" d="M1199.1,667.2v-8.9c0,0,118.3,8.7,140.3,10.3c22,1.6,192.1,16.5,216.9,16.5l0.6,10.7L1199.1,667.2"/>
	<path class="st10" d="M1747.6,744.4l60-2.5c0,0,12.3-2.2,12.7,11.3c3.1,15.1,13.4,66,17.5,68.1c-32.8-0.6-32.8-0.6-32.8-0.6
		s-14.9-3.9-47.4-19.4C1747.6,744.4,1747.6,744.4,1747.6,744.4z"/>
	<path class="st14" d="M1567.9,792.5l10.1-4.7l-21.7-94.5c0,0-335.2-27.8-357.2-26.1c1.7,55.7,1.7,55.7,1.7,55.7l-22.3,2.1
		l-47.4-7.2v-16.2l24.8,0.7l-40.8-10.7c0,0-106.7,2.1-108.1,3.1c35.4,16.5,35.4,16.5,35.4,16.5l11.7,48.1l12.4,16.8L1567.9,792.5z"
		/>
	<path class="st12" d="M1578,787.8c0,0,12.4-11.7,20.3-11s18.9-1,24.1-2.6c5.2-1.5,5.2-1.5,5.2-1.5l-7.2-12.4
		c0,0-16.2-41.6-24.1-75.3c-39.9,8.3-39.9,8.3-39.9,8.3L1578,787.8z"/>
	<path class="st9" d="M1213.7,759.3c0,0-113.2,9.6-136.2,11.2s-105.2,8-121.7,9.7c-16.5,1.7-57.1,4.6-120.6,8.8
		s-139.4,8.8-139.4,8.8l-3.4,2.3l6.9,47l4.4,1.3l8.4,3.3c0,0,30.6,0.5,34.6,3.8c4,3.3,14.7,3.6,49.5,3.6c1.8,0.6,2.8,2.9,13.8,2.7
		c11-0.1,85.7-1.7,101.1-3.1c15.4-1.3,17.8-1.8,17.8-1.8s30-9.2,52.4-11.9c18.4-4.5,46-15.1,49.3-15.4s9.5-1.9,14.7-3.7
		c5.2-1.7,7-3.6,22.9-4.8c4.3-0.6,6.9-0.2,21.6-5.6c2.5-0.8,38.6-2.1,87.9-3.7c14.1-0.4,30.4-2.2,35.3-7.8
		c2.9-0.9,26.7-3.7,34.8-1.4c10.4,1.8,37.5,5.7,54.1,7c17.5,3.4,36.5,9.4,105.6,26.8c15.5,3.2,15.5,3.2,15.5,3.2s7,0.9,9.7,1
		c3.1,0.7,19.8,4.5,23.2,5.5c4.4,1,38.1,5.5,50,2.8c6.7-1,12.4-0.9,19-4.3s12.5-11.2,12.5-11.2s-12-59.6-12.5-62
		c-2.2-2.9-55.5-6.2-114.8-12.7c-59.4-6.5-112.3-10.7-118.2-10.7s-24-2.2-24-2.2l0.6,15.8L1213.7,759.3z"/>
	<path class="st12" d="M1551.2,741.9c0,0-44-16.6-54-11.8c-10,4.8-11.3,10-11.3,10s-10.7,1.6-22.7,1.8c-12,0.3-88.4-10.4-120.3-12.7
		c-32-2.2-64.9,6.3-64.9,6.3l254.3,34.4L1551.2,741.9"/>
	<path class="st14" d="M479.1,774.2c0,0-0.2-27.5-1.5-28.1c-1.4-0.6-64.2,16.6-64.2,16.6l2,28.9L479.1,774.2z"/>
	<path class="st12" d="M420.3,787.4c0,0,22.1-10.2,24.7-10.2s57.2-5.8,77.4-5.5c20.1,0.3,169.3-24.4,170.2,6.5
		c-2.6,5.8-6.7,7.7-6.7,7.7l-267.7,11L420.3,787.4z"/>
	<path class="st12" d="M388,765.8c0,0-1.3-14,70.6-26.7c3.2-0.3,16.6-6,19,6.3c0.1,0.6-0.3,1.2-0.9,1.4
		c-13.1,3.4-60.1,15.5-61.9,17.5C407.8,764.1,388,765.8,388,765.8z"/>
	<path class="st12" d="M380.6,780.1c-5.4-1.3-10.8,0.8-13.1,2.6c-2.3,1.8-18.8,149-18.8,149s8.5-12.8,11.1-13.5s6.7-6.2,6.7-6.2
		s1.2-18.9,24.4-19.1c3.6,2.6,3.6,2.6,3.6,2.6l5.5-1.7l4.1-0.2l1.7-1.5l4.1-0.7l1.9-2.4l1.9-0.2l3.4-2.9l2.9-0.2h4.6l5.5-0.3
		l1.7-0.5l4-0.7l3.1-0.7l4.5-0.7l2.1-0.7l2.8,0.5c0,0,2.8-2.8,3.3-3.1s0-0.9,2.2-0.2s3.4,1.7,3.4,1.7s2.2,0.7,3.1,0.7
		c0.9,0,6.5-1.4,6.5-1.4l2.6-3.1h7.4l4.3-1.7l3.3,1.2l15,0.5"/>
	<path class="st12" d="M377.1,779.7c0,0-0.8-10.5,2-12.1s31.9-4.5,35.6-3.2c3.8,1.3,6.2,2,6.5,7.2s-1,15.9-1,15.9l-0.4,4.9h-8.2
		c0,0,37.3-0.2,40.1-0.4c2.8-0.3,78.6-5.2,81.7-5.1c3.1,0.2,42.1-2.4,45-2.6c2.9-0.2,99.4-8,103.7-6.1c11.7,0,11.7,0,11.7,0
		s5.8,63.1,10,70.3c-14.4,1-50.5,3.4-56.4,4.8s-31.1,2.2-31.1,2.2s-15.5,2.9-19.1,5.8c-7.6,0.3-21,2.4-21,2.4s-7-3.4-11.2-3.4
		s-25.4,1.2-27.8,2.6c-2.4,1.4-12.2,9.3-12.9,10.3c-4.5,0.5-5.2,1.5-5.2,1.5h-3.8l-1.5,2.4h-14.4"/>
	<path class="st12" d="M588.3,794.6c0,0,11.3-0.7,19.4-1.4c8.1-0.7,12.9,0.5,22.7,0c9.8-0.5,13.4-3.5,27.7-2.4"/>
	<path class="st12" d="M415.4,805.9c16.8-0.3,37-0.7,47.1-1.9s21.1,0.2,27.5-1.2c6.4-1.4,14.1-0.3,18.6-1.5
		c4.5-1.2,7.6,1.2,15.3-0.7s16.7,0.7,24.9-1.4c8.3-2.1,11.9-2.2,21-2.9c9.1-0.7,19.8-1.7,19.8-1.7"/>
	<path class="st15" d="M694.9,788.5c0,0,334.8-21.5,361.6-25.9c31.3-3.3,31.3-3.3,31.3-3.3s28.9-16.5,37.5-18.2
		c9.3-1.4,90.7-3,143.2-4.3"/>
	<path class="st9" d="M694.9,788.5"/>
	<path class="st15" d="M1213.7,759.3c0,0,0.2,43.1-0.5,44.9"/>
	<path class="st13" d="M1092.7,769.4l70.9-2.2l107.4-3.4l257.1,10.5l23.5-22.5l-29.1,10.2c0,0-252.5-29.7-253.8-26.5
		s-0.8,10.8-0.8,10.8s-53.3-0.2-58.8,0c-5.5,0.2-65.7,2.2-75.3,2.3C1124.4,748.8,1092.7,769.4,1092.7,769.4"/>
	<path class="st10" d="M844.5,584l0.3-14.4l3.3-0.5v-3.2c0,0,4.2-1.9,6.1,0.5c0,3.2,0,3.2,0,3.2l3.7,0.3l-0.3,14.6L844.5,584z"/>
	<path class="st12" d="M1537.5,833.8l-14.9-72.4l-2.1-10c0,0-0.7-4.1,3.9-4.8c4.6-0.7,26.8-4.8,26.8-4.8l16.7,50.6L1537.5,833.8"/>
	<line class="st12" x1="1522.6" y1="762" x2="1554.1" y2="750.9"/>
	<path class="st12" d="M1681.8,787.6c0,0,14.4-100.3,8.2-107.4c44,0,44,0,44,0l4.8,57.6h7.6l1.2,6.6l10.1,56.9
		C1757.7,801.3,1724.1,783,1681.8,787.6z"/>
	<line class="st15" x1="1053.3" y1="756.2" x2="1055" y2="762.7"/>
	<polyline class="st9" points="1060.6,553.9 1016.1,609.4 1074,609.4 	"/>
	<path class="st12" d="M1060.6,553.9l52-0.3V545c0,0-0.2-2.1,1.8-2.1c3.1-0.1,3.1-0.1,3.1-0.1v-6.1h4.3l-0.1,6.2l2.1,0
		c0,0,1.7-0.1,1.6,2.3c0,8.4,0,8.4,0,8.4l22.4,0l55.7,52.8l-129.5,3L1060.6,553.9z"/>
	<line class="st12" x1="1112.6" y1="553.6" x2="1125.4" y2="553.7"/>
	<path class="st13" d="M1276.8,564.1v-23.4l-5.3,0.2c0,0,3.7-4.6,5.3-8s4.5-5.9,8.5-6.4c0-6.1,0-6.1,0-6.1l-4.4-0.1l-0.1-2.5h4.3
		l0.1-4l2.8,0l-0.1,3.9h4.5v2.6l-4.4,0.1l0.1,6.2c0,0,6-0.2,7.8,5.7c1.6,4.6,6.1,8.7,6.1,8.7l-5,0.2l-0.1,22.9H1276.8z"/>
	<path class="st12" d="M294.7,743.7l-0.8-99.1l23.3-0.2l-0.1,3.9l142.2-4.1v54.5c0,0-33,14.7-45.9,23.4
		c-21.1,13.6-58.3,21.1-74.7,23.8c-2.3,0.4-4.6,0.8-6.9,1.4c-4.3,1.1-7.6,2-10,2.7c-5.1,1.4-10.4,1.8-15.6,0.8
		C301.1,750,295.8,748,294.7,743.7z"/>
	<line class="st12" x1="317.1" y1="648.5" x2="317.1" y2="751.1"/>
	<path class="st13" d="M452.7,602.3h48.6c0,0-2.5-2-5-4.5c-1.5-1.5-2.7-3.2-3.6-5c-3.2-6.3-5.9-8.7-13.7-9.2
		c-0.1-8.2-0.2-8.4-0.2-8.4h5.1l0.1-3.1l-5.2-0.2l0.2-4.2h-3.3l-0.2,4.3l-4.6-0.1l-0.1,3.2h4.8l-0.2,8.4c0,0-9.1-0.3-12.4,7.8
		C459.5,598.7,452.7,602.3,452.7,602.3z"/>
	<path class="st10" d="M459.2,615.2v83.6c0,0,18.4-3,21.4-4c3-1,13.1-5,24.2-6.9s30.6-4.6,30.6-4.6l-0.6-74.6L459.2,615.2z"/>
	<polygon class="st9" points="459.2,602.5 459.2,615.2 495.1,612.1 495.2,602.3 	"/>
	<path class="st12" d="M534.9,608.8c0,0-0.9-10.4,17.3-10.6c0.2,26.7,0.2,26.7,0.2,26.7v55.4c0,0-6.8,1.8-17,3
		C534.9,608.8,534.9,608.8,534.9,608.8z"/>
	<polygon class="st16" points="560.7,624.7 568.9,622.8 568.9,644.7 560.7,646.9 	"/>
	<path class="st12" d="M923.7,662.2c0,0-321.2,8.2-328.1,7.5"/>
	<polygon class="st14" points="907.9,584.9 907.5,567.7 918.9,567.5 918.9,584.9 	"/>
	<polygon class="st9" points="918.8,576 934.1,560.4 937.3,564.8 988.9,565.3 992.6,561.6 1012.8,585.9 918.9,584.9 	"/>
	<path class="st10" d="M863.8,584l0.2-10.3l3.7-0.2l0.2-3.4c0,0,1.6-1.3,3-0.2c0,3.4,0,3.4,0,3.4l2.6,0.2l-0.1-3.2
		c0,0,2.3-1.7,3.1,0.2c0.3,3.7-0.3,3.5-0.3,3.5l4.2-0.1l-0.1,10.1L863.8,584z"/>
	<polygon class="st12" points="907.5,584 880.3,584 857.5,584.4 834.6,584.7 812.7,607.6 812.7,624.2 907.5,624.2 	"/>
	<polygon class="st9" points="693.7,594.8 693.7,589.5 702.2,583.4 706.8,589.6 743.6,590.1 742.4,594.4 	"/>
	<path class="st13" d="M1009.8,582l-0.3-13.5c0,0,3.1-1.8,5.8,0.2c0,5.5,0,5.5,0,5.5l29,0.1l-9.3,11.6h-22.2L1009.8,582z"/>
	<path class="st12" d="M1396.9,632.8v-47.2c0,0,35.2-5.2,35.6,16.8c0.4,22,0,30.5,0,30.5H1396.9z"/>
	<path class="st10" d="M1176.2,580.6l7.8-10.5v-3.4l3.2-0.2l0.2,3.1l5.2,0.2v-2.5l3.6-0.2v3.8l4.3-0.1c0,0,0.8-4,4-3.9
		s2.9,2.4,3.5,4c19.4,0.7,19.4,0.7,19.4,0.7l2.7,14.3L1183,587L1176.2,580.6"/>
	<polygon class="st9" points="1244.3,585.7 1232.6,585.8 1233,568 1244,568 	"/>
	<polygon class="st12" points="1245.8,585.8 1264.4,564.3 1331.5,564.1 1345.4,585.8 	"/>
	<rect x="1095" y="647.9" class="st16" width="9.2" height="22.7"/>
	<path class="st9" d="M745.3,584.3l89.3,0.4l-21.9,22.9v16.6c0,0-42.2,11.8-57.8,12.7c-15.6,0.9-15.6,0.9-15.6,0.9v-32.5
		L745.3,584.3z"/>
	<polygon class="st14" points="745.3,584.3 752.4,606.7 739.3,605.3 	"/>
	<polyline class="st15" points="815.2,605.2 752.4,606.5 752.4,637.1 	"/>
	<polygon class="st10" points="729.4,575.1 737.7,575.3 738.4,594.4 729.4,594.4 	"/>
	<line class="st12" x1="1198.4" y1="619.7" x2="1074" y2="624.7"/>
	<path class="st10" d="M1993.1,797.5l-15.7-110.3c0,0,21.4-1.8,35,3.9l0.9,5.8c0,0-8.3,0.8-2.4,21c5.8,19.8,4.9,10.8,6.3,46.6
		c0,1,0.1,1.9,0.3,2.9c1,5.5,2.1,9.7,5.1,12.1c0.8,7.5,1.9,19,1.9,19s-3.3,3.6-7.7,3.4C2012.4,801.8,1999.1,798.1,1993.1,797.5z"/>
	<path class="st12" d="M1978.9,697.3c0,0,21.1-1,31,2.9"/>
	<path class="st12" d="M1734.1,680.2c0,0,158.2,10.6,243.4,7c1.4,10,1.4,10,1.4,10s-189.7,1.9-243.8-5
		C1734.1,680.2,1734.1,680.2,1734.1,680.2z"/>
	<polygon class="st13" points="1839,598.6 1856.1,598.3 1861.1,653.3 1867.7,653.6 1882,654.3 1887.2,676.7 1874.6,676.7 
		1869.5,653.7 1844.2,652.7 	"/>
	<polygon class="st12" points="1839,598.6 1432.5,602.3 1432.7,614.2 1840,608.9 	"/>
	<path class="st12" d="M1378,671.7v-38.9h117.9c0,0,7.8,0.2,8.3,12.8s0,36.3,0,36.3L1378,671.7z"/>
	<line class="st12" x1="1378" y1="643.1" x2="1504" y2="643.1"/>
	<rect x="727.9" y="617.9" class="st16" width="3.7" height="11.7"/>
	<polygon class="st12" points="693.7,594.8 579.2,594.4 579.2,605.5 739.8,603.4 742.4,594.4 	"/>
	<polygon class="st12" points="1181.6,585.8 1396.9,585.6 1396.9,592.7 1189.6,593.3 	"/>
	<polygon class="st13" points="1386.1,592.7 1386.1,632.8 1396.9,632.8 1396.9,592.7 	"/>
	<path class="st10" d="M1318.5,667.1c1.6,0,34.2-16.4,41.3-19.2c0.2-27.7,0.2-27.7,0.2-27.7l-161.6,1.6v36.5L1318.5,667.1z"/>
	<polygon class="st9" points="1189.6,593.3 1386.1,592.7 1386.1,632.8 1378,632.8 1378,671.7 1318.5,667.1 1359.8,647.9 1360,620.2 
		1198.4,621.8 1198.4,606.6 1203.5,606.4 	"/>
	<polygon class="st12" points="1030.6,591.3 828.8,590.7 834.6,584.7 907.9,584 907.9,584.7 1034.9,585.9 	"/>
	<polygon class="st13" points="1016.4,609.4 1016.1,684.8 1074,682.3 1073.8,608.7 	"/>
</g>
<g id="Buissons">
	<path class="st17" d="M774.6,634.6c0,0,0.5-11.9,2.1-17.7s3.7-14.3,0.9-19.1c-2.8-4.8-10.7-10.2-11.3-15.9
		c-0.7-5.7-0.7-5.7-0.7-5.7s1.7,7.1,5.2,11c3.4,3.9,7.4,7.6,7.4,7.6s1.9,2.2,1.9,2.7c0,0.6,1.5,0,1.7-2.2c0.2-2.2-4.5-7-4-11
		c0.5-4,3.9-6.5,2.1-11.2c-1.8-4.7-3.4-7.9-3.2-10.8s0.2-2.9,0.2-2.9s0.9,6.8,2.2,8.9s5.2,7.1,3.6,11.3s-2.9,4.9,0.9,12.3
		c1.1,2.3,1.7,3.4,1.5,4.8s4.1-3,3.7-9.1c-0.5-6.1-3.1-9.7-2.4-12.7c0.7-2.9,0.7-2.9,0.7-2.9s-0.3,3.8,1.1,8.8
		c1.5,5,2.5,6.9,2.1,9.3c1.6-2.3,1.6-2.3,1.6-2.3s2.1-1.8,3.3-6.5c1.3-4.7,1.7-9.2,1.7-9.2s1.3,6.3,0,11
		c-1.3,4.7-10.4,15.9-7.1,19.4c2.4-2.4,4.1-7.3,4.1-7.3s1.7,1.1,6.2-1.4c4.5-2.5,7.9-2.8,10.8-5.2c2.9-2.4,6.6-9.3,7.8-14.4
		c-1.3,7.3-3.7,13.4-4.6,14.7s-7.1,4.4-14.3,8.7c-5.5,2.4-8.9,10.4-10.2,14c-0.4,1.2-0.6,2.4-0.6,3.6l0.5,14.8L774.6,634.6z"/>
	<path class="st18" d="M353.1,708.7c0,0-2.3-17,5.6-20.4s8.8-8.4,12.5-10.8c3.8-2.4,9.5-2.4,12,0.7c2.6,3.1,2.6,16,7.2,17.4
		c4.6,1.4,12.5,5.7,13.6,10.8c1,5.2-9.8,10-7.7,12.5s14.4,4.6,9.3,11c-5.2,6.4-17.4,4.3-23.4,8.4c-6,4.1-13.3,8.1-17.7,6.6
		C360,743.3,350,723.6,353.1,708.7z"/>
	<path class="st19" d="M332.9,746.1c0,0-12.6-8.1-8.9-13.8c3.7-5.7,5-5.7,3.2-11.9c-1.8-6.2,2.3-5,4.6-13.1c2.3-8,1.8-11,8.3-12.4
		c6.4-1.4,8.9,8.7,13.1,10.5c4.1,1.8,10.1,3.9,9.9,8.3c-0.2,4.4-6.6,15.6-3.9,17.9s7.6,4.8,6.4,8.9S335.4,747.8,332.9,746.1z"/>
	<path class="st18" d="M920.3,650.3c0,0-3.8-10.2,5.2-10.7c8.9-0.5,18.3-3.9,25.4,5.1c5.7,2.4,10.5-1.7,11.5,4
		c3.2,1.4,4.8,0.9,5.3,6.2c5.5,1.8,10.3-3.2,17.6,1.8c2.5,0.9,13.8-1,11.9,9.1c2.8,3,33.5-0.4,27.7,16.3c-1.2,2.2-1.2,2.2-1.2,2.2
		l-92.8,4l-8.7-24.9C922.2,663.6,926.8,653.7,920.3,650.3z"/>
	<path class="st20" d="M1752.9,681.4c0,0,33.5-1.2,40.1-3.2c6.4-2,24.3-13,44.3-1.4c3,1.8,6.4,2.8,9.9,3.2
		c9.8,1.2,22.3-0.2,24.5-1.6c2.7-1.6,11.4-4.2,21.1-0.3c2.2,0.9,4.6,1,6.9,0.5c3.4-0.7,5.9-2.2,7-2.7c1.4-0.6,7.5-3.4,12.6,0.2
		c1.5,1,3.2,1.7,4.9,1.5c4.5-0.3,8.1-1.2,11.9,1.6c1.5,1.1,3.2,1.8,5.1,1.7c8-0.5,20.6-0.8,31.2,6.5
		C1950.5,687.9,1777.9,688.1,1752.9,681.4z"/>
	<path class="st20" d="M621,657.4c0,0,11.9-12.9,37.1-12.6s47.2-10.2,47.2-10.2s16.6-6.5,29.3,0.1c4.2,2.2,9,2.8,13.7,2.3
		c15.9-1.9,30.5-5.2,39.9-2.3c11.2,3.4,17,3.4,22,1.4c4.6-1.9,14.3-7.1,27.4-2.7c3.1,1,6.5,1.2,9.6,0.3c8.4-2.3,20.3-6.8,30.3,1.1
		c12.8,10.1,22.3,7.4,25.4,9.2c2.6,1.4,6,6.7,6,6.7L621,657.4z"/>
</g>
</svg>
