<?xml version="1.0" encoding="utf-8"?>
<!-- Generator: Adobe Illustrator 25.0.0, SVG Export Plug-In . SVG Version: 6.00 Build 0)  -->
<svg version="1.1" xmlns="http://www.w3.org/2000/svg" xmlns:xlink="http://www.w3.org/1999/xlink" x="0px" y="0px"
	 viewBox="0 0 297.6 419.5" style="enable-background:new 0 0 297.6 419.5;" xml:space="preserve">
<style type="text/css">
	.st0{fill:none;stroke:#48572B;stroke-miterlimit:10;}
	.st1{fill:url(#SVGID_1_);stroke:#8EA764;stroke-width:0.25;stroke-miterlimit:10;}
	.st2{fill:url(#SVGID_2_);stroke:#8EA764;stroke-width:0.25;stroke-miterlimit:10;}
	.st3{fill:url(#SVGID_3_);stroke:#8EA764;stroke-width:0.25;stroke-miterlimit:10;}
	.st4{fill:url(#SVGID_4_);stroke:#8EA764;stroke-width:0.25;stroke-miterlimit:10;}
	.st5{fill:url(#SVGID_5_);stroke:#8EA764;stroke-width:0.25;stroke-miterlimit:10;}
	.st6{fill:url(#SVGID_6_);stroke:#8EA764;stroke-width:0.25;stroke-miterlimit:10;}
	.st7{fill:url(#SVGID_7_);stroke:#8EA764;stroke-width:0.25;stroke-miterlimit:10;}
	.st8{fill:url(#SVGID_8_);stroke:#8EA764;stroke-width:0.25;stroke-miterlimit:10;}
	.st9{fill:url(#SVGID_9_);stroke:#8EA764;stroke-width:0.25;stroke-miterlimit:10;}
	.st10{fill:url(#SVGID_10_);stroke:#8EA764;stroke-width:0.25;stroke-miterlimit:10;}
	.st11{fill:url(#SVGID_11_);stroke:#8EA764;stroke-width:0.25;stroke-miterlimit:10;}
	.st12{fill:url(#SVGID_12_);stroke:#8EA764;stroke-width:0.25;stroke-miterlimit:10;}
	.st13{fill:url(#SVGID_13_);stroke:#8EA764;stroke-width:0.25;stroke-miterlimit:10;}
	.st14{fill:url(#SVGID_14_);stroke:#8EA764;stroke-width:0.25;stroke-miterlimit:10;}
	.st15{fill:url(#SVGID_15_);stroke:#8EA764;stroke-width:0.25;stroke-miterlimit:10;}
	.st16{fill:url(#SVGID_16_);stroke:#8EA764;stroke-width:0.25;stroke-miterlimit:10;}
	.st17{fill:url(#SVGID_17_);stroke:#8EA764;stroke-width:0.25;stroke-miterlimit:10;}
	.st18{fill:url(#SVGID_18_);stroke:#8EA764;stroke-width:0.25;stroke-miterlimit:10;}
	.st19{fill:url(#SVGID_19_);stroke:#8EA764;stroke-width:0.25;stroke-miterlimit:10;}
	.st20{fill:url(#SVGID_20_);stroke:#8EA764;stroke-width:0.25;stroke-miterlimit:10;}
	.st21{fill:url(#SVGID_21_);stroke:#8EA764;stroke-width:0.25;stroke-miterlimit:10;}
	.st22{fill:url(#SVGID_22_);stroke:#8EA764;stroke-width:0.25;stroke-miterlimit:10;}
	.st23{fill:url(#SVGID_23_);stroke:#8EA764;stroke-width:0.25;stroke-miterlimit:10;}
	.st24{fill:url(#SVGID_24_);stroke:#8EA764;stroke-width:0.25;stroke-miterlimit:10;}
	.st25{fill:url(#SVGID_25_);stroke:#8EA764;stroke-width:0.25;stroke-miterlimit:10;}
	.st26{fill:url(#SVGID_26_);stroke:#8EA764;stroke-width:0.25;stroke-miterlimit:10;}
	.st27{fill:url(#SVGID_27_);stroke:#8EA764;stroke-width:0.25;stroke-miterlimit:10;}
	.st28{fill:url(#SVGID_28_);stroke:#8EA764;stroke-width:0.25;stroke-miterlimit:10;}
	.st29{fill:url(#SVGID_29_);stroke:#8EA764;stroke-width:0.25;stroke-miterlimit:10;}
	.st30{fill:url(#SVGID_30_);stroke:#8EA764;stroke-width:0.25;stroke-miterlimit:10;}
	.st31{fill:url(#SVGID_31_);stroke:#8EA764;stroke-width:0.25;stroke-miterlimit:10;}
	.st32{fill:url(#SVGID_32_);stroke:#8EA764;stroke-width:0.25;stroke-miterlimit:10;}
	.st33{fill:url(#SVGID_33_);stroke:#8EA764;stroke-width:0.25;stroke-miterlimit:10;}
	.st34{fill:url(#SVGID_34_);stroke:#8EA764;stroke-width:0.25;stroke-miterlimit:10;}
	.st35{fill:url(#SVGID_35_);stroke:#8EA764;stroke-width:0.25;stroke-miterlimit:10;}
	.st36{fill:url(#SVGID_36_);stroke:#8EA764;stroke-width:0.25;stroke-miterlimit:10;}
	.st37{fill:url(#SVGID_37_);stroke:#8EA764;stroke-width:0.25;stroke-miterlimit:10;}
	.st38{fill:url(#SVGID_38_);stroke:#8EA764;stroke-width:0.25;stroke-miterlimit:10;}
	.st39{fill:url(#SVGID_39_);stroke:#8EA764;stroke-width:0.25;stroke-miterlimit:10;}
	.st40{fill:url(#SVGID_40_);stroke:#8EA764;stroke-width:0.25;stroke-miterlimit:10;}
	.st41{fill:url(#SVGID_41_);stroke:#8EA764;stroke-width:0.25;stroke-miterlimit:10;}
	.st42{fill:url(#SVGID_42_);stroke:#8EA764;stroke-width:0.25;stroke-miterlimit:10;}
	.st43{fill:url(#SVGID_43_);stroke:#8EA764;stroke-width:0.25;stroke-miterlimit:10;}
	.st44{fill:url(#SVGID_44_);stroke:#8EA764;stroke-width:0.25;stroke-miterlimit:10;}
	.st45{fill:url(#SVGID_45_);stroke:#8EA764;stroke-width:0.25;stroke-miterlimit:10;}
	.st46{fill:url(#SVGID_46_);stroke:#8EA764;stroke-width:0.25;stroke-miterlimit:10;}
</style>
<g id="Base">
	<path class="st0" d="M23.9,0c-3,23.8,18.9,36.8,15.4,59.1C35.8,81.5,19.9,86,17.4,114.4s14.9,68.2,13.9,79.6c-1,11.4-7,18.9-7,18.9
		"/>
	<path class="st0" d="M54.2,0c4.5,8.4-22.4,52.2-20.9,70.1c3,36.3,14.8,51.2,14.9,80.1S43.8,191,43.8,191"/>
	<path class="st0" d="M10,0c4.5,10.4-19.4,23.8,12.9,75.1s13.4,77.6,13.4,77.6"/>
	<path class="st0" d="M62.7,0c-11.4,15.8,13.9,41.2,6,58.1s-29.9,55.2-16.4,80.1s-4.5,44.8,2.5,62.2s19.4,26.9,19.4,26.9"/>
</g>
<g id="feuilles">
	<linearGradient id="SVGID_1_" gradientUnits="userSpaceOnUse" x1="-2.5555" y1="32.5922" x2="8.1917" y2="43.3394">
		<stop  offset="1.331947e-07" style="stop-color:#8EA764"/>
		<stop  offset="0.1139" style="stop-color:#8AA260"/>
		<stop  offset="0.2796" style="stop-color:#7E9456"/>
		<stop  offset="0.476" style="stop-color:#6B7E47"/>
		<stop  offset="0.5145" style="stop-color:#667A44"/>
		<stop  offset="0.8257" style="stop-color:#536434"/>
		<stop  offset="1" style="stop-color:#48572B"/>
	</linearGradient>
	<path class="st1" d="M-1.8,33.8c1.3-5.9,7.5-7,7.5-7s5.1,4.1,4.1,9.2s-6.3,7-8.6,14.3C1.2,50.4-2.8,39.6-1.8,33.8z"/>
	<linearGradient id="SVGID_2_" gradientUnits="userSpaceOnUse" x1="2.9539" y1="60.5095" x2="12.7199" y2="70.2755">
		<stop  offset="1.331947e-07" style="stop-color:#8EA764"/>
		<stop  offset="0.1139" style="stop-color:#8AA260"/>
		<stop  offset="0.2796" style="stop-color:#7E9456"/>
		<stop  offset="0.476" style="stop-color:#6B7E47"/>
		<stop  offset="0.5145" style="stop-color:#667A44"/>
		<stop  offset="0.8257" style="stop-color:#536434"/>
		<stop  offset="1" style="stop-color:#48572B"/>
	</linearGradient>
	<path class="st2" d="M16,66.7c2.3-4.4-2.9-9.4-2.9-9.4s-7.1-1.2-9.2,2.5c-2.1,3.7,1.8,8.6-0.4,14.5C3.4,74.3,13.5,70.8,16,66.7z"/>
	<linearGradient id="SVGID_3_" gradientUnits="userSpaceOnUse" x1="-2.9884" y1="-3.7363" x2="6.7776" y2="6.0297">
		<stop  offset="1.331947e-07" style="stop-color:#8EA764"/>
		<stop  offset="0.1139" style="stop-color:#8AA260"/>
		<stop  offset="0.2796" style="stop-color:#7E9456"/>
		<stop  offset="0.476" style="stop-color:#6B7E47"/>
		<stop  offset="0.5145" style="stop-color:#667A44"/>
		<stop  offset="0.8257" style="stop-color:#536434"/>
		<stop  offset="1" style="stop-color:#48572B"/>
	</linearGradient>
	<path class="st3" d="M10.1,2.5c2.3-4.4-2.9-9.4-2.9-9.4S0-8.1-2.1-4.4s1.8,8.6-0.4,14.5C-2.5,10.1,7.5,6.6,10.1,2.5z"/>
	<linearGradient id="SVGID_4_" gradientUnits="userSpaceOnUse" x1="7.564" y1="12.7993" x2="24.446" y2="29.6813">
		<stop  offset="1.331947e-07" style="stop-color:#8EA764"/>
		<stop  offset="0.1139" style="stop-color:#8AA260"/>
		<stop  offset="0.2796" style="stop-color:#7E9456"/>
		<stop  offset="0.476" style="stop-color:#6B7E47"/>
		<stop  offset="0.5145" style="stop-color:#667A44"/>
		<stop  offset="0.8257" style="stop-color:#536434"/>
		<stop  offset="1" style="stop-color:#48572B"/>
	</linearGradient>
	<path class="st4" d="M17.9,14.9c-4-4.6-10-2.5-10-2.5s-2.5,6,0.9,10s8.9,3.1,14.5,8.4C23.3,30.8,21.6,19.5,17.9,14.9z"/>
	<linearGradient id="SVGID_5_" gradientUnits="userSpaceOnUse" x1="2.2303" y1="-15.6497" x2="19.1123" y2="1.2323">
		<stop  offset="1.331947e-07" style="stop-color:#8EA764"/>
		<stop  offset="0.1139" style="stop-color:#8AA260"/>
		<stop  offset="0.2796" style="stop-color:#7E9456"/>
		<stop  offset="0.476" style="stop-color:#6B7E47"/>
		<stop  offset="0.5145" style="stop-color:#667A44"/>
		<stop  offset="0.8257" style="stop-color:#536434"/>
		<stop  offset="1" style="stop-color:#48572B"/>
	</linearGradient>
	<path class="st5" d="M12.6-13.6c-4-4.6-10-2.5-10-2.5s-2.5,6,0.9,10S12.5-2.9,18,2.3C18,2.3,16.3-9,12.6-13.6z"/>
	<linearGradient id="SVGID_6_" gradientUnits="userSpaceOnUse" x1="10.6565" y1="44.0796" x2="26.8487" y2="60.2718">
		<stop  offset="1.331947e-07" style="stop-color:#8EA764"/>
		<stop  offset="0.1139" style="stop-color:#8AA260"/>
		<stop  offset="0.2796" style="stop-color:#7E9456"/>
		<stop  offset="0.476" style="stop-color:#6B7E47"/>
		<stop  offset="0.5145" style="stop-color:#667A44"/>
		<stop  offset="0.8257" style="stop-color:#536434"/>
		<stop  offset="1" style="stop-color:#48572B"/>
	</linearGradient>
	<path class="st6" d="M18.9,44.5C13.4,41.8,8.8,46,8.8,46s0,6.5,4.6,8.9s9.5-0.5,16.6,2.2C30,57.2,24.1,47.4,18.9,44.5z"/>
	<linearGradient id="SVGID_7_" gradientUnits="userSpaceOnUse" x1="27.4565" y1="77.4881" x2="43.6487" y2="93.6803">
		<stop  offset="1.331947e-07" style="stop-color:#8EA764"/>
		<stop  offset="0.1139" style="stop-color:#8AA260"/>
		<stop  offset="0.2796" style="stop-color:#7E9456"/>
		<stop  offset="0.476" style="stop-color:#6B7E47"/>
		<stop  offset="0.5145" style="stop-color:#667A44"/>
		<stop  offset="0.8257" style="stop-color:#536434"/>
		<stop  offset="1" style="stop-color:#48572B"/>
	</linearGradient>
	<path class="st7" d="M35.7,77.9c-5.5-2.7-10.2,1.5-10.2,1.5s0,6.5,4.6,8.9s9.5-0.5,16.6,2.2C46.8,90.6,40.9,80.8,35.7,77.9z"/>
	<linearGradient id="SVGID_8_" gradientUnits="userSpaceOnUse" x1="54.8247" y1="38.1778" x2="63.2155" y2="46.5686">
		<stop  offset="1.331947e-07" style="stop-color:#8EA764"/>
		<stop  offset="0.1139" style="stop-color:#8AA260"/>
		<stop  offset="0.2796" style="stop-color:#7E9456"/>
		<stop  offset="0.476" style="stop-color:#6B7E47"/>
		<stop  offset="0.5145" style="stop-color:#667A44"/>
		<stop  offset="0.8257" style="stop-color:#536434"/>
		<stop  offset="1" style="stop-color:#48572B"/>
	</linearGradient>
	<path class="st8" d="M66.5,43.1c3.3-5.1-0.3-10.3-0.3-10.3s-6.5-0.7-9.4,3.6s-0.5,9.5-4.1,16.2C52.6,52.6,63,47.9,66.5,43.1z"/>
	<linearGradient id="SVGID_9_" gradientUnits="userSpaceOnUse" x1="63.1415" y1="-8.7864" x2="80.0149" y2="8.087">
		<stop  offset="1.331947e-07" style="stop-color:#8EA764"/>
		<stop  offset="0.1139" style="stop-color:#8AA260"/>
		<stop  offset="0.2796" style="stop-color:#7E9456"/>
		<stop  offset="0.476" style="stop-color:#6B7E47"/>
		<stop  offset="0.5145" style="stop-color:#667A44"/>
		<stop  offset="0.8257" style="stop-color:#536434"/>
		<stop  offset="1" style="stop-color:#48572B"/>
	</linearGradient>
	<path class="st9" d="M63.3,0.7c-3.2-5.3,1.1-10.8,1.1-10.8s7.2-1,10.1,3.4c2.9,4.4-0.1,9.9,3.3,16.9C77.9,10.2,66.8,5.6,63.3,0.7z"
		/>
	<linearGradient id="SVGID_10_" gradientUnits="userSpaceOnUse" x1="37.3846" y1="182.2101" x2="46.6381" y2="191.4636">
		<stop  offset="1.331947e-07" style="stop-color:#8EA764"/>
		<stop  offset="0.1139" style="stop-color:#8AA260"/>
		<stop  offset="0.2796" style="stop-color:#7E9456"/>
		<stop  offset="0.476" style="stop-color:#6B7E47"/>
		<stop  offset="0.5145" style="stop-color:#667A44"/>
		<stop  offset="0.8257" style="stop-color:#536434"/>
		<stop  offset="1" style="stop-color:#48572B"/>
	</linearGradient>
	<path class="st10" d="M49.7,186c1.8-5.8-3.2-9.8-3.2-9.8s-6.4,1.1-8.1,6c-1.6,5,2.1,9.2,0.5,16.7C38.9,198.9,47.6,191.5,49.7,186z"
		/>
	<linearGradient id="SVGID_11_" gradientUnits="userSpaceOnUse" x1="38.6666" y1="144.2041" x2="47.9201" y2="153.4576">
		<stop  offset="1.331947e-07" style="stop-color:#8EA764"/>
		<stop  offset="0.1139" style="stop-color:#8AA260"/>
		<stop  offset="0.2796" style="stop-color:#7E9456"/>
		<stop  offset="0.476" style="stop-color:#6B7E47"/>
		<stop  offset="0.5145" style="stop-color:#667A44"/>
		<stop  offset="0.8257" style="stop-color:#536434"/>
		<stop  offset="1" style="stop-color:#48572B"/>
	</linearGradient>
	<path class="st11" d="M50.9,148c1.8-5.8-3.2-9.8-3.2-9.8s-6.4,1.1-8.1,6c-1.6,5,2.1,9.2,0.5,16.7C40.2,160.9,48.9,153.5,50.9,148z"
		/>
	<linearGradient id="SVGID_12_" gradientUnits="userSpaceOnUse" x1="27.2663" y1="97.228" x2="36.5198" y2="106.4815">
		<stop  offset="1.331947e-07" style="stop-color:#8EA764"/>
		<stop  offset="0.1139" style="stop-color:#8AA260"/>
		<stop  offset="0.2796" style="stop-color:#7E9456"/>
		<stop  offset="0.476" style="stop-color:#6B7E47"/>
		<stop  offset="0.5145" style="stop-color:#667A44"/>
		<stop  offset="0.8257" style="stop-color:#536434"/>
		<stop  offset="1" style="stop-color:#48572B"/>
	</linearGradient>
	<path class="st12" d="M39.5,101c1.8-5.8-3.2-9.8-3.2-9.8s-6.4,1.1-8.1,6s2.1,9.2,0.5,16.7C28.8,114,37.5,106.5,39.5,101z"/>
	<linearGradient id="SVGID_13_" gradientUnits="userSpaceOnUse" x1="36.4035" y1="43.1624" x2="49.7855" y2="56.5444">
		<stop  offset="1.331947e-07" style="stop-color:#8EA764"/>
		<stop  offset="0.1139" style="stop-color:#8AA260"/>
		<stop  offset="0.2796" style="stop-color:#7E9456"/>
		<stop  offset="0.476" style="stop-color:#6B7E47"/>
		<stop  offset="0.5145" style="stop-color:#667A44"/>
		<stop  offset="0.8257" style="stop-color:#536434"/>
		<stop  offset="1" style="stop-color:#48572B"/>
	</linearGradient>
	<path class="st13" d="M49.4,46.3c-0.3-6.5-6.7-8.7-6.7-8.7s-6.1,3.4-6,9c0.1,5.6,5.5,8.6,6.5,16.6C43.2,63.2,49.3,52.6,49.4,46.3z"
		/>
	<linearGradient id="SVGID_14_" gradientUnits="userSpaceOnUse" x1="38.0127" y1="22.1798" x2="46.36" y2="30.5271">
		<stop  offset="1.331947e-07" style="stop-color:#8EA764"/>
		<stop  offset="0.1139" style="stop-color:#8AA260"/>
		<stop  offset="0.2796" style="stop-color:#7E9456"/>
		<stop  offset="0.476" style="stop-color:#6B7E47"/>
		<stop  offset="0.5145" style="stop-color:#667A44"/>
		<stop  offset="0.8257" style="stop-color:#536434"/>
		<stop  offset="1" style="stop-color:#48572B"/>
	</linearGradient>
	<path class="st14" d="M49.1,27.8c4.1-4.5,1.3-10.2,1.3-10.2s-6.3-1.7-9.9,2.1s-2,9.3-6.6,15.3C33.9,35,44.9,32,49.1,27.8z"/>
	<linearGradient id="SVGID_15_" gradientUnits="userSpaceOnUse" x1="22.6888" y1="59.2393" x2="31.0361" y2="67.5866">
		<stop  offset="1.331947e-07" style="stop-color:#8EA764"/>
		<stop  offset="0.1139" style="stop-color:#8AA260"/>
		<stop  offset="0.2796" style="stop-color:#7E9456"/>
		<stop  offset="0.476" style="stop-color:#6B7E47"/>
		<stop  offset="0.5145" style="stop-color:#667A44"/>
		<stop  offset="0.8257" style="stop-color:#536434"/>
		<stop  offset="1" style="stop-color:#48572B"/>
	</linearGradient>
	<path class="st15" d="M33.8,64.8c4.1-4.5,1.3-10.2,1.3-10.2s-6.3-1.7-9.9,2.1s-2,9.3-6.6,15.3C18.6,72.1,29.6,69,33.8,64.8z"/>
	<linearGradient id="SVGID_16_" gradientUnits="userSpaceOnUse" x1="46.756" y1="155.8853" x2="63.638" y2="172.7673">
		<stop  offset="1.331947e-07" style="stop-color:#8EA764"/>
		<stop  offset="0.1139" style="stop-color:#8AA260"/>
		<stop  offset="0.2796" style="stop-color:#7E9456"/>
		<stop  offset="0.476" style="stop-color:#6B7E47"/>
		<stop  offset="0.5145" style="stop-color:#667A44"/>
		<stop  offset="0.8257" style="stop-color:#536434"/>
		<stop  offset="1" style="stop-color:#48572B"/>
	</linearGradient>
	<path class="st16" d="M57.1,157.9c-4-4.6-10-2.5-10-2.5s-2.5,6,0.9,10c3.4,4,8.9,3.1,14.5,8.4C62.5,173.9,60.8,162.6,57.1,157.9z"
		/>
	<linearGradient id="SVGID_17_" gradientUnits="userSpaceOnUse" x1="32.167" y1="66.078" x2="49.049" y2="82.96">
		<stop  offset="1.331947e-07" style="stop-color:#8EA764"/>
		<stop  offset="0.1139" style="stop-color:#8AA260"/>
		<stop  offset="0.2796" style="stop-color:#7E9456"/>
		<stop  offset="0.476" style="stop-color:#6B7E47"/>
		<stop  offset="0.5145" style="stop-color:#667A44"/>
		<stop  offset="0.8257" style="stop-color:#536434"/>
		<stop  offset="1" style="stop-color:#48572B"/>
	</linearGradient>
	<path class="st17" d="M42.5,68.1c-4-4.6-10-2.5-10-2.5s-2.5,6,0.9,10c3.4,4,8.9,3.1,14.5,8.4C47.9,84.1,46.2,72.8,42.5,68.1z"/>
	<linearGradient id="SVGID_18_" gradientUnits="userSpaceOnUse" x1="22.5614" y1="-4.2736" x2="39.4434" y2="12.6084">
		<stop  offset="1.331947e-07" style="stop-color:#8EA764"/>
		<stop  offset="0.1139" style="stop-color:#8AA260"/>
		<stop  offset="0.2796" style="stop-color:#7E9456"/>
		<stop  offset="0.476" style="stop-color:#6B7E47"/>
		<stop  offset="0.5145" style="stop-color:#667A44"/>
		<stop  offset="0.8257" style="stop-color:#536434"/>
		<stop  offset="1" style="stop-color:#48572B"/>
	</linearGradient>
	<path class="st18" d="M32.9-2.2c-4-4.6-10-2.5-10-2.5s-2.5,6,0.9,10s8.9,3.1,14.5,8.4C38.3,13.7,36.6,2.4,32.9-2.2z"/>
	
		<linearGradient id="SVGID_19_" gradientUnits="userSpaceOnUse" x1="15.0222" y1="16.3912" x2="24.7882" y2="26.1572" gradientTransform="matrix(1.0172 -3.024567e-02 -3.024567e-02 1.0532 -3.263642e-02 5.742670e-02)">
		<stop  offset="1.331947e-07" style="stop-color:#8EA764"/>
		<stop  offset="0.1139" style="stop-color:#8AA260"/>
		<stop  offset="0.2796" style="stop-color:#7E9456"/>
		<stop  offset="0.476" style="stop-color:#6B7E47"/>
		<stop  offset="0.5145" style="stop-color:#667A44"/>
		<stop  offset="0.8257" style="stop-color:#536434"/>
		<stop  offset="1" style="stop-color:#48572B"/>
	</linearGradient>
	<path class="st19" d="M27.8,23c2.4-4.7-2.7-9.8-2.7-9.8s-7.2-1.1-9.5,2.9s1.6,9-0.8,15.3C14.8,31.4,25.1,27.4,27.8,23z"/>
	<linearGradient id="SVGID_20_" gradientUnits="userSpaceOnUse" x1="25.2464" y1="42.624" x2="33.359" y2="50.7366">
		<stop  offset="1.331947e-07" style="stop-color:#8EA764"/>
		<stop  offset="0.1139" style="stop-color:#8AA260"/>
		<stop  offset="0.2796" style="stop-color:#7E9456"/>
		<stop  offset="0.476" style="stop-color:#6B7E47"/>
		<stop  offset="0.5145" style="stop-color:#667A44"/>
		<stop  offset="0.8257" style="stop-color:#536434"/>
		<stop  offset="1" style="stop-color:#48572B"/>
	</linearGradient>
	<path class="st20" d="M36.4,47.4c2.3-4.4-1.8-8.8-1.8-8.8s-6.1-0.6-8.2,3.1s0.9,8.1-1.5,13.9C24.9,55.6,33.8,51.5,36.4,47.4z"/>
	<linearGradient id="SVGID_21_" gradientUnits="userSpaceOnUse" x1="23.4691" y1="70.7089" x2="31.573" y2="78.8127">
		<stop  offset="1.331947e-07" style="stop-color:#8EA764"/>
		<stop  offset="0.1139" style="stop-color:#8AA260"/>
		<stop  offset="0.2796" style="stop-color:#7E9456"/>
		<stop  offset="0.476" style="stop-color:#6B7E47"/>
		<stop  offset="0.5145" style="stop-color:#667A44"/>
		<stop  offset="0.8257" style="stop-color:#536434"/>
		<stop  offset="1" style="stop-color:#48572B"/>
	</linearGradient>
	<path class="st21" d="M32.9,77.4c3.9-3,2.1-8.7,2.1-8.7s-5.3-3.1-8.7-0.6s-2.6,7.7-7.2,12C19.1,80,28.9,80,32.9,77.4z"/>
	<linearGradient id="SVGID_22_" gradientUnits="userSpaceOnUse" x1="8.4839" y1="139.4732" x2="18.0732" y2="149.0626">
		<stop  offset="1.331947e-07" style="stop-color:#8EA764"/>
		<stop  offset="0.1139" style="stop-color:#8AA260"/>
		<stop  offset="0.2796" style="stop-color:#7E9456"/>
		<stop  offset="0.476" style="stop-color:#6B7E47"/>
		<stop  offset="0.5145" style="stop-color:#667A44"/>
		<stop  offset="0.8257" style="stop-color:#536434"/>
		<stop  offset="1" style="stop-color:#48572B"/>
	</linearGradient>
	<path class="st22" d="M21.5,143.9c1.5-5.4-4.1-9.4-4.1-9.4s-6.9,0.7-8.4,5.4c-1.5,4.6,2.9,8.8,1.6,15.9
		C10.6,155.7,19.6,149,21.5,143.9z"/>
	<linearGradient id="SVGID_23_" gradientUnits="userSpaceOnUse" x1="19.1571" y1="178.498" x2="28.7464" y2="188.0873">
		<stop  offset="1.331947e-07" style="stop-color:#8EA764"/>
		<stop  offset="0.1139" style="stop-color:#8AA260"/>
		<stop  offset="0.2796" style="stop-color:#7E9456"/>
		<stop  offset="0.476" style="stop-color:#6B7E47"/>
		<stop  offset="0.5145" style="stop-color:#667A44"/>
		<stop  offset="0.8257" style="stop-color:#536434"/>
		<stop  offset="1" style="stop-color:#48572B"/>
	</linearGradient>
	<path class="st23" d="M32.2,182.9c1.5-5.4-4.1-9.4-4.1-9.4s-6.9,0.7-8.4,5.4s2.9,8.8,1.6,15.9C21.3,194.7,30.3,188.1,32.2,182.9z"
		/>
	<linearGradient id="SVGID_24_" gradientUnits="userSpaceOnUse" x1="18.1791" y1="211.9023" x2="27.7684" y2="221.4916">
		<stop  offset="1.331947e-07" style="stop-color:#8EA764"/>
		<stop  offset="0.1139" style="stop-color:#8AA260"/>
		<stop  offset="0.2796" style="stop-color:#7E9456"/>
		<stop  offset="0.476" style="stop-color:#6B7E47"/>
		<stop  offset="0.5145" style="stop-color:#667A44"/>
		<stop  offset="0.8257" style="stop-color:#536434"/>
		<stop  offset="1" style="stop-color:#48572B"/>
	</linearGradient>
	<path class="st24" d="M31.2,216.3c1.5-5.4-4.1-9.4-4.1-9.4s-6.9,0.7-8.4,5.4c-1.5,4.6,2.9,8.8,1.6,15.9
		C20.3,228.1,29.3,221.5,31.2,216.3z"/>
	<linearGradient id="SVGID_25_" gradientUnits="userSpaceOnUse" x1="32.1718" y1="194.0156" x2="47.7084" y2="209.5523">
		<stop  offset="1.331947e-07" style="stop-color:#8EA764"/>
		<stop  offset="0.1139" style="stop-color:#8AA260"/>
		<stop  offset="0.2796" style="stop-color:#7E9456"/>
		<stop  offset="0.476" style="stop-color:#6B7E47"/>
		<stop  offset="0.5145" style="stop-color:#667A44"/>
		<stop  offset="0.8257" style="stop-color:#536434"/>
		<stop  offset="1" style="stop-color:#48572B"/>
	</linearGradient>
	<path class="st25" d="M33.7,203.2c-3.8-4-1.5-9.3-1.5-9.3s5.7-1.8,9.1,1.6c3.4,3.4,2.1,8.4,6.5,13.9
		C47.9,209.4,37.7,206.9,33.7,203.2z"/>
	<linearGradient id="SVGID_26_" gradientUnits="userSpaceOnUse" x1="20.2033" y1="153.8363" x2="36.8126" y2="170.4457">
		<stop  offset="1.331947e-07" style="stop-color:#8EA764"/>
		<stop  offset="0.1139" style="stop-color:#8AA260"/>
		<stop  offset="0.2796" style="stop-color:#7E9456"/>
		<stop  offset="0.476" style="stop-color:#6B7E47"/>
		<stop  offset="0.5145" style="stop-color:#667A44"/>
		<stop  offset="0.8257" style="stop-color:#536434"/>
		<stop  offset="1" style="stop-color:#48572B"/>
	</linearGradient>
	<path class="st26" d="M21,162.9c-3.3-5.1,0.4-10.3,0.4-10.3s6.5-0.8,9.5,3.5c3,4.3,0.5,9.5,4.1,16.2
		C34.9,172.3,24.5,167.7,21,162.9z"/>
	<linearGradient id="SVGID_27_" gradientUnits="userSpaceOnUse" x1="16.6532" y1="122.625" x2="33.2626" y2="139.2344">
		<stop  offset="1.331947e-07" style="stop-color:#8EA764"/>
		<stop  offset="0.1139" style="stop-color:#8AA260"/>
		<stop  offset="0.2796" style="stop-color:#7E9456"/>
		<stop  offset="0.476" style="stop-color:#6B7E47"/>
		<stop  offset="0.5145" style="stop-color:#667A44"/>
		<stop  offset="0.8257" style="stop-color:#536434"/>
		<stop  offset="1" style="stop-color:#48572B"/>
	</linearGradient>
	<path class="st27" d="M17.5,131.7c-3.3-5.1,0.4-10.3,0.4-10.3s6.5-0.8,9.5,3.5c3,4.3,0.5,9.5,4.1,16.2
		C31.4,141.1,20.9,136.5,17.5,131.7z"/>
	<linearGradient id="SVGID_28_" gradientUnits="userSpaceOnUse" x1="19.8395" y1="93.4604" x2="31.8752" y2="105.4961">
		<stop  offset="1.331947e-07" style="stop-color:#8EA764"/>
		<stop  offset="0.1139" style="stop-color:#8AA260"/>
		<stop  offset="0.2796" style="stop-color:#7E9456"/>
		<stop  offset="0.476" style="stop-color:#6B7E47"/>
		<stop  offset="0.5145" style="stop-color:#667A44"/>
		<stop  offset="0.8257" style="stop-color:#536434"/>
		<stop  offset="1" style="stop-color:#48572B"/>
	</linearGradient>
	<path class="st28" d="M21.2,95.9c0.2-6.1,5-8.2,5-8.2s4.5,3.1,4.4,8.3c-0.1,5.2-4.1,8-4.9,15.6C25.8,111.6,21.2,101.8,21.2,95.9z"
		/>
	<linearGradient id="SVGID_29_" gradientUnits="userSpaceOnUse" x1="29.8738" y1="23.187" x2="46.8794" y2="40.1925">
		<stop  offset="1.331947e-07" style="stop-color:#8EA764"/>
		<stop  offset="0.1139" style="stop-color:#8AA260"/>
		<stop  offset="0.2796" style="stop-color:#7E9456"/>
		<stop  offset="0.476" style="stop-color:#6B7E47"/>
		<stop  offset="0.5145" style="stop-color:#667A44"/>
		<stop  offset="0.8257" style="stop-color:#536434"/>
		<stop  offset="1" style="stop-color:#48572B"/>
	</linearGradient>
	<path class="st29" d="M31.8,34.5C26.9,30.8,29,24,29,24s6.3-3.5,10.6-0.4s3.4,9.3,9.1,14.6C48.8,38.3,36.8,37.9,31.8,34.5z"/>
	<linearGradient id="SVGID_30_" gradientUnits="userSpaceOnUse" x1="10.6819" y1="73.7073" x2="21.4291" y2="84.4545">
		<stop  offset="1.331947e-07" style="stop-color:#8EA764"/>
		<stop  offset="0.1139" style="stop-color:#8AA260"/>
		<stop  offset="0.2796" style="stop-color:#7E9456"/>
		<stop  offset="0.476" style="stop-color:#6B7E47"/>
		<stop  offset="0.5145" style="stop-color:#667A44"/>
		<stop  offset="0.8257" style="stop-color:#536434"/>
		<stop  offset="1" style="stop-color:#48572B"/>
	</linearGradient>
	<path class="st30" d="M11.4,74.9c1.3-5.9,7.5-7,7.5-7S24,72,23,77.2c-1,5.1-6.3,7-8.6,14.3C14.4,91.5,10.4,80.8,11.4,74.9z"/>
	<linearGradient id="SVGID_31_" gradientUnits="userSpaceOnUse" x1="56.0732" y1="83.5956" x2="74.5617" y2="102.0842">
		<stop  offset="1.331947e-07" style="stop-color:#8EA764"/>
		<stop  offset="0.1139" style="stop-color:#8AA260"/>
		<stop  offset="0.2796" style="stop-color:#7E9456"/>
		<stop  offset="0.476" style="stop-color:#6B7E47"/>
		<stop  offset="0.5145" style="stop-color:#667A44"/>
		<stop  offset="0.8257" style="stop-color:#536434"/>
		<stop  offset="1" style="stop-color:#48572B"/>
	</linearGradient>
	<path class="st31" d="M57.2,93.8c-3.8-5.5,0-11.3,0-11.3s7.1-1.1,10.5,3.6c3.4,4.6,1,10.4,5.2,17.7C72.9,103.8,61.2,99,57.2,93.8z"
		/>
	<linearGradient id="SVGID_32_" gradientUnits="userSpaceOnUse" x1="8.8657" y1="102.1779" x2="17.2269" y2="110.5391">
		<stop  offset="1.331947e-07" style="stop-color:#8EA764"/>
		<stop  offset="0.1139" style="stop-color:#8AA260"/>
		<stop  offset="0.2796" style="stop-color:#7E9456"/>
		<stop  offset="0.476" style="stop-color:#6B7E47"/>
		<stop  offset="0.5145" style="stop-color:#667A44"/>
		<stop  offset="0.8257" style="stop-color:#536434"/>
		<stop  offset="1" style="stop-color:#48572B"/>
	</linearGradient>
	<path class="st32" d="M11.1,99.9c4.1-4.5,10-2.4,10-2.4s2.4,6-1,10c-3.4,4-9,3-14.5,8.3C5.6,115.8,7.4,104.6,11.1,99.9z"/>
	<linearGradient id="SVGID_33_" gradientUnits="userSpaceOnUse" x1="62.7636" y1="218.6683" x2="79.487" y2="235.3917">
		<stop  offset="1.331947e-07" style="stop-color:#8EA764"/>
		<stop  offset="0.1139" style="stop-color:#8AA260"/>
		<stop  offset="0.2796" style="stop-color:#7E9456"/>
		<stop  offset="0.476" style="stop-color:#6B7E47"/>
		<stop  offset="0.5145" style="stop-color:#667A44"/>
		<stop  offset="0.8257" style="stop-color:#536434"/>
		<stop  offset="1" style="stop-color:#48572B"/>
	</linearGradient>
	<path class="st33" d="M63.7,227.9c-3.4-5,0.1-10.3,0.1-10.3s6.4-0.9,9.5,3.4s0.7,9.4,4.5,16.1C77.8,237.1,67.3,232.6,63.7,227.9z"
		/>
	<linearGradient id="SVGID_34_" gradientUnits="userSpaceOnUse" x1="45.7351" y1="192.1292" x2="56.3152" y2="202.7093">
		<stop  offset="1.331947e-07" style="stop-color:#8EA764"/>
		<stop  offset="0.1139" style="stop-color:#8AA260"/>
		<stop  offset="0.2796" style="stop-color:#7E9456"/>
		<stop  offset="0.476" style="stop-color:#6B7E47"/>
		<stop  offset="0.5145" style="stop-color:#667A44"/>
		<stop  offset="0.8257" style="stop-color:#536434"/>
		<stop  offset="1" style="stop-color:#48572B"/>
	</linearGradient>
	<path class="st34" d="M58.1,195.4c0.9-6-4.5-9.2-4.5-9.2s-6.2,2-7.1,7.1c-0.9,5.2,3.4,8.9,2.8,16.5
		C49.3,209.8,56.8,201.2,58.1,195.4z"/>
	<linearGradient id="SVGID_35_" gradientUnits="userSpaceOnUse" x1="44.6895" y1="157.4397" x2="53.0378" y2="165.788">
		<stop  offset="1.331947e-07" style="stop-color:#8EA764"/>
		<stop  offset="0.1139" style="stop-color:#8AA260"/>
		<stop  offset="0.2796" style="stop-color:#7E9456"/>
		<stop  offset="0.476" style="stop-color:#6B7E47"/>
		<stop  offset="0.5145" style="stop-color:#667A44"/>
		<stop  offset="0.8257" style="stop-color:#536434"/>
		<stop  offset="1" style="stop-color:#48572B"/>
	</linearGradient>
	<path class="st35" d="M55.4,163.5c4.5-4.1,2.3-10,2.3-10s-6.1-2.3-10,1.1s-2.9,9-8.1,14.6C39.5,169.2,50.8,167.2,55.4,163.5z"/>
	<linearGradient id="SVGID_36_" gradientUnits="userSpaceOnUse" x1="35.1013" y1="118.6235" x2="43.4486" y2="126.9708">
		<stop  offset="1.331947e-07" style="stop-color:#8EA764"/>
		<stop  offset="0.1139" style="stop-color:#8AA260"/>
		<stop  offset="0.2796" style="stop-color:#7E9456"/>
		<stop  offset="0.476" style="stop-color:#6B7E47"/>
		<stop  offset="0.5145" style="stop-color:#667A44"/>
		<stop  offset="0.8257" style="stop-color:#536434"/>
		<stop  offset="1" style="stop-color:#48572B"/>
	</linearGradient>
	<path class="st36" d="M46.2,124.2c4.1-4.5,1.3-10.2,1.3-10.2s-6.3-1.7-9.9,2.1c-3.6,3.8-2,9.3-6.6,15.3
		C31,131.5,42,128.4,46.2,124.2z"/>
	<linearGradient id="SVGID_37_" gradientUnits="userSpaceOnUse" x1="53.5653" y1="70.6944" x2="61.9126" y2="79.0417">
		<stop  offset="1.331947e-07" style="stop-color:#8EA764"/>
		<stop  offset="0.1139" style="stop-color:#8AA260"/>
		<stop  offset="0.2796" style="stop-color:#7E9456"/>
		<stop  offset="0.476" style="stop-color:#6B7E47"/>
		<stop  offset="0.5145" style="stop-color:#667A44"/>
		<stop  offset="0.8257" style="stop-color:#536434"/>
		<stop  offset="1" style="stop-color:#48572B"/>
	</linearGradient>
	<path class="st37" d="M64.7,76.3c4.1-4.5,1.3-10.2,1.3-10.2s-6.3-1.7-9.9,2.1c-3.6,3.8-2,9.3-6.6,15.3
		C49.5,83.5,60.5,80.5,64.7,76.3z"/>
	
		<linearGradient id="SVGID_38_" gradientUnits="userSpaceOnUse" x1="50.2533" y1="18.2185" x2="63.6375" y2="31.6026" gradientTransform="matrix(1.0472 0.3816 -0.3698 0.9568 7.2838 -22.0965)">
		<stop  offset="1.331947e-07" style="stop-color:#8EA764"/>
		<stop  offset="0.1139" style="stop-color:#8AA260"/>
		<stop  offset="0.2796" style="stop-color:#7E9456"/>
		<stop  offset="0.476" style="stop-color:#6B7E47"/>
		<stop  offset="0.5145" style="stop-color:#667A44"/>
		<stop  offset="0.8257" style="stop-color:#536434"/>
		<stop  offset="1" style="stop-color:#48572B"/>
	</linearGradient>
	<path class="st38" d="M64.6,21.8c1.3-6.1-4.5-9.9-4.5-9.9s-7,1.5-8.3,6.7s3.3,9.4,2.3,17.2C54.1,35.7,62.9,27.6,64.6,21.8z"/>
	<linearGradient id="SVGID_39_" gradientUnits="userSpaceOnUse" x1="46.6975" y1="130.3009" x2="61.1883" y2="144.7917">
		<stop  offset="1.331947e-07" style="stop-color:#8EA764"/>
		<stop  offset="0.1139" style="stop-color:#8AA260"/>
		<stop  offset="0.2796" style="stop-color:#7E9456"/>
		<stop  offset="0.476" style="stop-color:#6B7E47"/>
		<stop  offset="0.5145" style="stop-color:#667A44"/>
		<stop  offset="0.8257" style="stop-color:#536434"/>
		<stop  offset="1" style="stop-color:#48572B"/>
	</linearGradient>
	<path class="st39" d="M46.8,137.3c-2.1-5.2,2-9.2,2-9.2s5.9,0.4,7.9,4.8s-1.1,8.6,1,15.3C57.7,148.2,49.2,142.2,46.8,137.3z"/>
	<linearGradient id="SVGID_40_" gradientUnits="userSpaceOnUse" x1="60.6378" y1="201.4598" x2="73.4883" y2="214.3102">
		<stop  offset="1.331947e-07" style="stop-color:#8EA764"/>
		<stop  offset="0.1139" style="stop-color:#8AA260"/>
		<stop  offset="0.2796" style="stop-color:#7E9456"/>
		<stop  offset="0.476" style="stop-color:#6B7E47"/>
		<stop  offset="0.5145" style="stop-color:#667A44"/>
		<stop  offset="0.8257" style="stop-color:#536434"/>
		<stop  offset="1" style="stop-color:#48572B"/>
	</linearGradient>
	<path class="st40" d="M63.3,212.2c-5.4-1.2-6.4-6.9-6.4-6.9s3.7-4.7,8.4-3.8c4.7,0.9,6.5,5.8,13.2,7.8
		C78.4,209.4,68.6,213,63.3,212.2z"/>
	<linearGradient id="SVGID_41_" gradientUnits="userSpaceOnUse" x1="38.6438" y1="103.8676" x2="55.5258" y2="120.7496">
		<stop  offset="1.331947e-07" style="stop-color:#8EA764"/>
		<stop  offset="0.1139" style="stop-color:#8AA260"/>
		<stop  offset="0.2796" style="stop-color:#7E9456"/>
		<stop  offset="0.476" style="stop-color:#6B7E47"/>
		<stop  offset="0.5145" style="stop-color:#667A44"/>
		<stop  offset="0.8257" style="stop-color:#536434"/>
		<stop  offset="1" style="stop-color:#48572B"/>
	</linearGradient>
	<path class="st41" d="M49,105.9c-4-4.6-10-2.5-10-2.5s-2.5,6,0.9,10c3.4,4,8.9,3.1,14.5,8.4C54.4,121.9,52.7,110.6,49,105.9z"/>
	<linearGradient id="SVGID_42_" gradientUnits="userSpaceOnUse" x1="54.5258" y1="173.8346" x2="69.745" y2="189.0539">
		<stop  offset="1.331947e-07" style="stop-color:#8EA764"/>
		<stop  offset="0.1139" style="stop-color:#8AA260"/>
		<stop  offset="0.2796" style="stop-color:#7E9456"/>
		<stop  offset="0.476" style="stop-color:#6B7E47"/>
		<stop  offset="0.5145" style="stop-color:#667A44"/>
		<stop  offset="0.8257" style="stop-color:#536434"/>
		<stop  offset="1" style="stop-color:#48572B"/>
	</linearGradient>
	<path class="st42" d="M55.2,182c-2.9-4.7,0.5-9.4,0.5-9.4s5.9-0.6,8.6,3.4c2.6,4,0.3,8.7,3.5,14.9C67.8,191,58.4,186.5,55.2,182z"
		/>
	<linearGradient id="SVGID_43_" gradientUnits="userSpaceOnUse" x1="67.273" y1="49.2024" x2="84.1464" y2="66.0758">
		<stop  offset="1.331947e-07" style="stop-color:#8EA764"/>
		<stop  offset="0.1139" style="stop-color:#8AA260"/>
		<stop  offset="0.2796" style="stop-color:#7E9456"/>
		<stop  offset="0.476" style="stop-color:#6B7E47"/>
		<stop  offset="0.5145" style="stop-color:#667A44"/>
		<stop  offset="0.8257" style="stop-color:#536434"/>
		<stop  offset="1" style="stop-color:#48572B"/>
	</linearGradient>
	<path class="st43" d="M67.5,58.7c-3.2-5.3,1.1-10.8,1.1-10.8s7.2-1,10.1,3.4c2.9,4.4-0.1,9.9,3.3,16.9C82,68.2,70.9,63.6,67.5,58.7
		z"/>
	<linearGradient id="SVGID_44_" gradientUnits="userSpaceOnUse" x1="38.2063" y1="97.191" x2="47.422" y2="106.4067">
		<stop  offset="1.331947e-07" style="stop-color:#8EA764"/>
		<stop  offset="0.1139" style="stop-color:#8AA260"/>
		<stop  offset="0.2796" style="stop-color:#7E9456"/>
		<stop  offset="0.476" style="stop-color:#6B7E47"/>
		<stop  offset="0.5145" style="stop-color:#667A44"/>
		<stop  offset="0.8257" style="stop-color:#536434"/>
		<stop  offset="1" style="stop-color:#48572B"/>
	</linearGradient>
	<path class="st44" d="M41.3,94.1c5.1-4.4,11.3-1.2,11.3-1.2s1.8,6.9-2.5,10.8s-10.3,2-17.1,6.9C33,110.7,36.6,98.6,41.3,94.1z"/>
	<linearGradient id="SVGID_45_" gradientUnits="userSpaceOnUse" x1="52.4917" y1="2.7329" x2="66.0905" y2="16.3317">
		<stop  offset="1.331947e-07" style="stop-color:#8EA764"/>
		<stop  offset="0.1139" style="stop-color:#8AA260"/>
		<stop  offset="0.2796" style="stop-color:#7E9456"/>
		<stop  offset="0.476" style="stop-color:#6B7E47"/>
		<stop  offset="0.5145" style="stop-color:#667A44"/>
		<stop  offset="0.8257" style="stop-color:#536434"/>
		<stop  offset="1" style="stop-color:#48572B"/>
	</linearGradient>
	<path class="st45" d="M64.1,5.5c-1.3-5.7-7.6-6.7-7.6-6.7s-5.2,4-4.2,9c0.9,5,6.4,6.8,8.6,13.8C60.8,21.6,65,11.2,64.1,5.5z"/>
	<linearGradient id="SVGID_46_" gradientUnits="userSpaceOnUse" x1="28.1968" y1="155.3162" x2="37.7861" y2="164.9056">
		<stop  offset="1.331947e-07" style="stop-color:#8EA764"/>
		<stop  offset="0.1139" style="stop-color:#8AA260"/>
		<stop  offset="0.2796" style="stop-color:#7E9456"/>
		<stop  offset="0.476" style="stop-color:#6B7E47"/>
		<stop  offset="0.5145" style="stop-color:#667A44"/>
		<stop  offset="0.8257" style="stop-color:#536434"/>
		<stop  offset="1" style="stop-color:#48572B"/>
	</linearGradient>
	<path class="st46" d="M41.2,159.7c1.5-5.4-4.1-9.4-4.1-9.4s-6.9,0.7-8.4,5.4s2.9,8.8,1.6,15.9C30.3,171.6,39.4,164.9,41.2,159.7z"
		/>
</g>
<g id="_x22_contenu_x22_">
</g>
</svg>
