<?xml version="1.0" encoding="utf-8"?>
<!-- Generator: Adobe Illustrator 25.0.0, SVG Export Plug-In . SVG Version: 6.00 Build 0)  -->
<svg version="1.1" id="Calque_1" xmlns="http://www.w3.org/2000/svg" xmlns:xlink="http://www.w3.org/1999/xlink" x="0px" y="0px"
	 viewBox="0 0 85 255.1" style="enable-background:new 0 0 85 255.1;" xml:space="preserve">
<style type="text/css">
	.st0{display:none;fill:none;stroke:#49582B;stroke-miterlimit:10;}
	.st1{fill:none;stroke:#49582B;stroke-miterlimit:10;}
	.st2{display:none;fill:url(#SVGID_1_);stroke:#8EA764;stroke-width:0.25;stroke-miterlimit:10;}
	.st3{display:none;fill:url(#SVGID_2_);stroke:#8EA764;stroke-width:0.25;stroke-miterlimit:10;}
	.st4{display:none;fill:url(#SVGID_3_);stroke:#8EA764;stroke-width:0.25;stroke-miterlimit:10;}
	.st5{display:none;fill:url(#SVGID_4_);stroke:#8EA764;stroke-width:0.25;stroke-miterlimit:10;}
	.st6{display:none;fill:url(#SVGID_5_);stroke:#8EA764;stroke-width:0.25;stroke-miterlimit:10;}
	.st7{display:none;fill:url(#SVGID_6_);stroke:#8EA764;stroke-width:0.25;stroke-miterlimit:10;}
	.st8{display:none;fill:url(#SVGID_7_);stroke:#8EA764;stroke-width:0.25;stroke-miterlimit:10;}
	.st9{fill:url(#SVGID_8_);stroke:#8EA764;stroke-width:0.25;stroke-miterlimit:10;}
	.st10{fill:url(#SVGID_9_);stroke:#8EA764;stroke-width:0.25;stroke-miterlimit:10;}
	.st11{fill:url(#SVGID_10_);stroke:#8EA764;stroke-width:0.25;stroke-miterlimit:10;}
	.st12{fill:url(#SVGID_11_);stroke:#8EA764;stroke-width:0.25;stroke-miterlimit:10;}
	.st13{fill:url(#SVGID_12_);stroke:#8EA764;stroke-width:0.25;stroke-miterlimit:10;}
	.st14{fill:url(#SVGID_13_);stroke:#8EA764;stroke-width:0.25;stroke-miterlimit:10;}
	.st15{fill:url(#SVGID_14_);stroke:#8EA764;stroke-width:0.25;stroke-miterlimit:10;}
	.st16{fill:url(#SVGID_15_);stroke:#8EA764;stroke-width:0.25;stroke-miterlimit:10;}
	.st17{fill:url(#SVGID_16_);stroke:#8EA764;stroke-width:0.25;stroke-miterlimit:10;}
	.st18{fill:url(#SVGID_17_);stroke:#8EA764;stroke-width:0.25;stroke-miterlimit:10;}
	.st19{display:none;fill:url(#SVGID_18_);stroke:#8EA764;stroke-width:0.25;stroke-miterlimit:10;}
	.st20{display:none;fill:url(#SVGID_19_);stroke:#8EA764;stroke-width:0.25;stroke-miterlimit:10;}
	.st21{display:none;fill:url(#SVGID_20_);stroke:#8EA764;stroke-width:0.25;stroke-miterlimit:10;}
	.st22{fill:url(#SVGID_21_);stroke:#8EA764;stroke-width:0.25;stroke-miterlimit:10;}
	.st23{display:none;fill:url(#SVGID_22_);stroke:#8EA764;stroke-width:0.25;stroke-miterlimit:10;}
	.st24{display:none;fill:url(#SVGID_23_);stroke:#8EA764;stroke-width:0.25;stroke-miterlimit:10;}
	.st25{display:none;fill:url(#SVGID_24_);stroke:#8EA764;stroke-width:0.25;stroke-miterlimit:10;}
	.st26{display:none;fill:url(#SVGID_25_);stroke:#8EA764;stroke-width:0.25;stroke-miterlimit:10;}
	.st27{display:none;fill:url(#SVGID_26_);stroke:#8EA764;stroke-width:0.25;stroke-miterlimit:10;}
	.st28{display:none;fill:url(#SVGID_27_);stroke:#8EA764;stroke-width:0.25;stroke-miterlimit:10;}
	.st29{display:none;fill:url(#SVGID_28_);stroke:#8EA764;stroke-width:0.25;stroke-miterlimit:10;}
	.st30{display:none;fill:url(#SVGID_29_);stroke:#8EA764;stroke-width:0.25;stroke-miterlimit:10;}
	.st31{display:none;fill:url(#SVGID_30_);stroke:#8EA764;stroke-width:0.25;stroke-miterlimit:10;}
	.st32{fill:url(#SVGID_31_);stroke:#8EA764;stroke-width:0.25;stroke-miterlimit:10;}
	.st33{display:none;fill:url(#SVGID_32_);stroke:#8EA764;stroke-width:0.25;stroke-miterlimit:10;}
	.st34{fill:url(#SVGID_33_);stroke:#8EA764;stroke-width:0.25;stroke-miterlimit:10;}
	.st35{fill:url(#SVGID_34_);stroke:#8EA764;stroke-width:0.25;stroke-miterlimit:10;}
	.st36{fill:url(#SVGID_35_);stroke:#8EA764;stroke-width:0.25;stroke-miterlimit:10;}
	.st37{fill:url(#SVGID_36_);stroke:#8EA764;stroke-width:0.25;stroke-miterlimit:10;}
	.st38{fill:url(#SVGID_37_);stroke:#8EA764;stroke-width:0.25;stroke-miterlimit:10;}
	.st39{fill:url(#SVGID_38_);stroke:#8EA764;stroke-width:0.25;stroke-miterlimit:10;}
	.st40{fill:url(#SVGID_39_);stroke:#8EA764;stroke-width:0.25;stroke-miterlimit:10;}
	.st41{fill:url(#SVGID_40_);stroke:#8EA764;stroke-width:0.25;stroke-miterlimit:10;}
	.st42{fill:url(#SVGID_41_);stroke:#8EA764;stroke-width:0.25;stroke-miterlimit:10;}
	.st43{fill:url(#SVGID_42_);stroke:#8EA764;stroke-width:0.25;stroke-miterlimit:10;}
	.st44{fill:url(#SVGID_43_);stroke:#8EA764;stroke-width:0.25;stroke-miterlimit:10;}
	.st45{fill:url(#SVGID_44_);stroke:#8EA764;stroke-width:0.25;stroke-miterlimit:10;}
	.st46{fill:url(#SVGID_45_);stroke:#8EA764;stroke-width:0.25;stroke-miterlimit:10;}
	.st47{display:none;fill:url(#SVGID_46_);stroke:#8EA764;stroke-width:0.25;stroke-miterlimit:10;}
</style>
<g id="Base">
	<path class="st0" d="M16.8-0.2c-3,23.8,18.9,36.8,15.4,59.1c-3.5,22.4-19.4,26.9-21.9,55.3s14.9,68.2,13.9,79.6s-7,18.9-7,18.9"/>
	<path class="st1" d="M47.1-0.2C51.6,8.2,24.7,52,26.2,69.9c3,36.3,14.8,51.2,14.9,80.1s-4.4,40.8-4.4,40.8"/>
	<path class="st0" d="M2.9-0.2c4.5,10.4-19.4,23.8,12.9,75.1s13.4,77.6,13.4,77.6"/>
	<path class="st1" d="M55.6-0.2c-11.4,15.8,13.9,41.2,6,58.1S31.7,113.1,45.2,138s-4.5,44.8,2.5,62.2s19.4,26.9,19.4,26.9"/>
</g>
<g id="feuilles">
	
		<linearGradient id="SVGID_1_" gradientUnits="userSpaceOnUse" x1="-9.6534" y1="2446.3215" x2="1.0938" y2="2457.0688" gradientTransform="matrix(1 0 0 1 0 -2414.0002)">
		<stop  offset="1.331947e-07" style="stop-color:#8EA764"/>
		<stop  offset="0.1139" style="stop-color:#8BA260"/>
		<stop  offset="0.2796" style="stop-color:#7D9356"/>
		<stop  offset="0.476" style="stop-color:#6C7E47"/>
		<stop  offset="0.5145" style="stop-color:#677A44"/>
		<stop  offset="0.8257" style="stop-color:#546535"/>
		<stop  offset="1" style="stop-color:#49582B"/>
	</linearGradient>
	<path class="st2" d="M-8.9,33.6c1.3-5.9,7.5-7,7.5-7s5.1,4.1,4.1,9.2s-6.3,7-8.6,14.3C-5.9,50.2-9.9,39.4-8.9,33.6z"/>
	
		<linearGradient id="SVGID_2_" gradientUnits="userSpaceOnUse" x1="-4.155" y1="2474.25" x2="5.611" y2="2484.0159" gradientTransform="matrix(1 0 0 1 0 -2414.0002)">
		<stop  offset="1.331947e-07" style="stop-color:#8EA764"/>
		<stop  offset="0.1139" style="stop-color:#8BA260"/>
		<stop  offset="0.2796" style="stop-color:#7D9356"/>
		<stop  offset="0.476" style="stop-color:#6C7E47"/>
		<stop  offset="0.5145" style="stop-color:#677A44"/>
		<stop  offset="0.8257" style="stop-color:#546535"/>
		<stop  offset="1" style="stop-color:#49582B"/>
	</linearGradient>
	<path class="st3" d="M8.9,66.5c2.3-4.4-2.9-9.4-2.9-9.4s-7.1-1.2-9.2,2.5s1.8,8.6-0.4,14.5C-3.7,74.1,6.4,70.6,8.9,66.5z"/>
	
		<linearGradient id="SVGID_3_" gradientUnits="userSpaceOnUse" x1="-10.1239" y1="2410.0308" x2="-0.3602" y2="2419.7944" gradientTransform="matrix(1 0 0 1 0 -2414.0002)">
		<stop  offset="1.331947e-07" style="stop-color:#8EA764"/>
		<stop  offset="0.1139" style="stop-color:#8BA260"/>
		<stop  offset="0.2796" style="stop-color:#7D9356"/>
		<stop  offset="0.476" style="stop-color:#6C7E47"/>
		<stop  offset="0.5145" style="stop-color:#677A44"/>
		<stop  offset="0.8257" style="stop-color:#546535"/>
		<stop  offset="1" style="stop-color:#49582B"/>
	</linearGradient>
	<path class="st4" d="M3,2.3c2.3-4.4-2.9-9.4-2.9-9.4s-7.2-1.2-9.3,2.5S-7.4,4-9.6,9.9C-9.6,9.9,0.4,6.4,3,2.3z"/>
	
		<linearGradient id="SVGID_4_" gradientUnits="userSpaceOnUse" x1="0.393" y1="2426.6021" x2="17.275" y2="2443.4839" gradientTransform="matrix(1 0 0 1 0 -2414.0002)">
		<stop  offset="1.331947e-07" style="stop-color:#8EA764"/>
		<stop  offset="0.1139" style="stop-color:#8BA260"/>
		<stop  offset="0.2796" style="stop-color:#7D9356"/>
		<stop  offset="0.476" style="stop-color:#6C7E47"/>
		<stop  offset="0.5145" style="stop-color:#677A44"/>
		<stop  offset="0.8257" style="stop-color:#546535"/>
		<stop  offset="1" style="stop-color:#49582B"/>
	</linearGradient>
	<path class="st5" d="M10.8,14.7c-4-4.6-10-2.5-10-2.5s-2.5,6,0.9,10s8.9,3.1,14.5,8.4C16.2,30.6,14.5,19.3,10.8,14.7z"/>
	
		<linearGradient id="SVGID_5_" gradientUnits="userSpaceOnUse" x1="-4.8984" y1="2398.1106" x2="11.9836" y2="2414.9924" gradientTransform="matrix(1 0 0 1 0 -2414.0002)">
		<stop  offset="1.331947e-07" style="stop-color:#8EA764"/>
		<stop  offset="0.1139" style="stop-color:#8BA260"/>
		<stop  offset="0.2796" style="stop-color:#7D9356"/>
		<stop  offset="0.476" style="stop-color:#6C7E47"/>
		<stop  offset="0.5145" style="stop-color:#677A44"/>
		<stop  offset="0.8257" style="stop-color:#546535"/>
		<stop  offset="1" style="stop-color:#49582B"/>
	</linearGradient>
	<path class="st6" d="M5.5-13.8c-4-4.6-10-2.5-10-2.5s-2.5,6,0.9,10s9,3.2,14.5,8.4C10.9,2.1,9.2-9.2,5.5-13.8z"/>
	
		<linearGradient id="SVGID_6_" gradientUnits="userSpaceOnUse" x1="3.5245" y1="2457.8433" x2="19.7167" y2="2474.0354" gradientTransform="matrix(1 0 0 1 0 -2414.0002)">
		<stop  offset="1.331947e-07" style="stop-color:#8EA764"/>
		<stop  offset="0.1139" style="stop-color:#8BA260"/>
		<stop  offset="0.2796" style="stop-color:#7D9356"/>
		<stop  offset="0.476" style="stop-color:#6C7E47"/>
		<stop  offset="0.5145" style="stop-color:#677A44"/>
		<stop  offset="0.8257" style="stop-color:#546535"/>
		<stop  offset="1" style="stop-color:#49582B"/>
	</linearGradient>
	<path class="st7" d="M11.8,44.3c-5.5-2.7-10.1,1.5-10.1,1.5s0,6.5,4.6,8.9s9.5-0.5,16.6,2.2C22.9,57,17,47.2,11.8,44.3z"/>
	
		<linearGradient id="SVGID_7_" gradientUnits="userSpaceOnUse" x1="20.3035" y1="2491.2727" x2="36.4957" y2="2507.4648" gradientTransform="matrix(1 0 0 1 0 -2414.0002)">
		<stop  offset="1.331947e-07" style="stop-color:#8EA764"/>
		<stop  offset="0.1139" style="stop-color:#8BA260"/>
		<stop  offset="0.2796" style="stop-color:#7D9356"/>
		<stop  offset="0.476" style="stop-color:#6C7E47"/>
		<stop  offset="0.5145" style="stop-color:#677A44"/>
		<stop  offset="0.8257" style="stop-color:#546535"/>
		<stop  offset="1" style="stop-color:#49582B"/>
	</linearGradient>
	<path class="st8" d="M28.6,77.7c-5.5-2.7-10.2,1.5-10.2,1.5s0,6.5,4.6,8.9s9.5-0.5,16.6,2.2C39.7,90.4,33.8,80.6,28.6,77.7z"/>
	
		<linearGradient id="SVGID_8_" gradientUnits="userSpaceOnUse" x1="47.7394" y1="2451.8945" x2="56.1262" y2="2460.2815" gradientTransform="matrix(1 0 0 1 0 -2414.0002)">
		<stop  offset="1.331947e-07" style="stop-color:#8EA764"/>
		<stop  offset="0.1139" style="stop-color:#8BA260"/>
		<stop  offset="0.2796" style="stop-color:#7D9356"/>
		<stop  offset="0.476" style="stop-color:#6C7E47"/>
		<stop  offset="0.5145" style="stop-color:#677A44"/>
		<stop  offset="0.8257" style="stop-color:#546535"/>
		<stop  offset="1" style="stop-color:#49582B"/>
	</linearGradient>
	<path class="st9" d="M59.4,42.9c3.3-5.1-0.3-10.3-0.3-10.3s-6.5-0.7-9.4,3.6s-0.5,9.5-4.1,16.2C45.5,52.4,55.9,47.7,59.4,42.9z"/>
	
		<linearGradient id="SVGID_9_" gradientUnits="userSpaceOnUse" x1="55.9873" y1="2404.9995" x2="72.8607" y2="2421.8728" gradientTransform="matrix(1 0 0 1 0 -2414.0002)">
		<stop  offset="1.331947e-07" style="stop-color:#8EA764"/>
		<stop  offset="0.1139" style="stop-color:#8BA260"/>
		<stop  offset="0.2796" style="stop-color:#7D9356"/>
		<stop  offset="0.476" style="stop-color:#6C7E47"/>
		<stop  offset="0.5145" style="stop-color:#677A44"/>
		<stop  offset="0.8257" style="stop-color:#546535"/>
		<stop  offset="1" style="stop-color:#49582B"/>
	</linearGradient>
	<path class="st10" d="M56.2,0.5c-3.2-5.3,1.1-10.8,1.1-10.8s7.2-1,10.1,3.4S67.3,3,70.7,10C70.8,10,59.7,5.4,56.2,0.5z"/>
	
		<linearGradient id="SVGID_10_" gradientUnits="userSpaceOnUse" x1="30.2465" y1="2595.9797" x2="39.5" y2="2605.2332" gradientTransform="matrix(1 0 0 1 0 -2414.0002)">
		<stop  offset="1.331947e-07" style="stop-color:#8EA764"/>
		<stop  offset="0.1139" style="stop-color:#8BA260"/>
		<stop  offset="0.2796" style="stop-color:#7D9356"/>
		<stop  offset="0.476" style="stop-color:#6C7E47"/>
		<stop  offset="0.5145" style="stop-color:#677A44"/>
		<stop  offset="0.8257" style="stop-color:#546535"/>
		<stop  offset="1" style="stop-color:#49582B"/>
	</linearGradient>
	<path class="st11" d="M42.6,185.8c1.8-5.8-3.2-9.8-3.2-9.8s-6.4,1.1-8.1,6c-1.6,5,2.1,9.2,0.5,16.7
		C31.8,198.7,40.5,191.3,42.6,185.8z"/>
	
		<linearGradient id="SVGID_11_" gradientUnits="userSpaceOnUse" x1="31.4845" y1="2558.0178" x2="40.738" y2="2567.2712" gradientTransform="matrix(1 0 0 1 0 -2414.0002)">
		<stop  offset="1.331947e-07" style="stop-color:#8EA764"/>
		<stop  offset="0.1139" style="stop-color:#8BA260"/>
		<stop  offset="0.2796" style="stop-color:#7D9356"/>
		<stop  offset="0.476" style="stop-color:#6C7E47"/>
		<stop  offset="0.5145" style="stop-color:#677A44"/>
		<stop  offset="0.8257" style="stop-color:#546535"/>
		<stop  offset="1" style="stop-color:#49582B"/>
	</linearGradient>
	<path class="st12" d="M43.8,147.8c1.8-5.8-3.2-9.8-3.2-9.8s-6.4,1.1-8.1,6c-1.6,5,2.1,9.2,0.5,16.7
		C33.1,160.7,41.8,153.3,43.8,147.8z"/>
	
		<linearGradient id="SVGID_12_" gradientUnits="userSpaceOnUse" x1="20.0963" y1="2511.0295" x2="29.3498" y2="2520.283" gradientTransform="matrix(1 0 0 1 0 -2414.0002)">
		<stop  offset="1.331947e-07" style="stop-color:#8EA764"/>
		<stop  offset="0.1139" style="stop-color:#8BA260"/>
		<stop  offset="0.2796" style="stop-color:#7D9356"/>
		<stop  offset="0.476" style="stop-color:#6C7E47"/>
		<stop  offset="0.5145" style="stop-color:#677A44"/>
		<stop  offset="0.8257" style="stop-color:#546535"/>
		<stop  offset="1" style="stop-color:#49582B"/>
	</linearGradient>
	<path class="st13" d="M32.4,100.8c1.8-5.8-3.2-9.8-3.2-9.8s-6.4,1.1-8.1,6s2.1,9.2,0.5,16.7C21.7,113.8,30.4,106.3,32.4,100.8z"/>
	
		<linearGradient id="SVGID_13_" gradientUnits="userSpaceOnUse" x1="29.2688" y1="2456.9287" x2="42.6383" y2="2470.2981" gradientTransform="matrix(1 0 0 1 0 -2414.0002)">
		<stop  offset="1.331947e-07" style="stop-color:#8EA764"/>
		<stop  offset="0.1139" style="stop-color:#8BA260"/>
		<stop  offset="0.2796" style="stop-color:#7D9356"/>
		<stop  offset="0.476" style="stop-color:#6C7E47"/>
		<stop  offset="0.5145" style="stop-color:#677A44"/>
		<stop  offset="0.8257" style="stop-color:#546535"/>
		<stop  offset="1" style="stop-color:#49582B"/>
	</linearGradient>
	<path class="st14" d="M42.3,46.1c-0.3-6.5-6.7-8.7-6.7-8.7s-6.1,3.4-6,9S35.1,55,36.1,63C36.1,63,42.2,52.4,42.3,46.1z"/>
	
		<linearGradient id="SVGID_14_" gradientUnits="userSpaceOnUse" x1="30.8865" y1="2435.9414" x2="39.2384" y2="2444.2932" gradientTransform="matrix(1 0 0 1 0 -2414.0002)">
		<stop  offset="1.331947e-07" style="stop-color:#8EA764"/>
		<stop  offset="0.1139" style="stop-color:#8BA260"/>
		<stop  offset="0.2796" style="stop-color:#7D9356"/>
		<stop  offset="0.476" style="stop-color:#6C7E47"/>
		<stop  offset="0.5145" style="stop-color:#677A44"/>
		<stop  offset="0.8257" style="stop-color:#546535"/>
		<stop  offset="1" style="stop-color:#49582B"/>
	</linearGradient>
	<path class="st15" d="M42,27.6c4.1-4.5,1.3-10.2,1.3-10.2s-6.3-1.7-9.9,2.1s-2,9.3-6.6,15.3C26.8,34.8,37.8,31.8,42,27.6z"/>
	
		<linearGradient id="SVGID_15_" gradientUnits="userSpaceOnUse" x1="16.0094" y1="2471.3647" x2="24.3613" y2="2479.7166" gradientTransform="matrix(1 0 0 1 0 -2414.0002)">
		<stop  offset="1.331947e-07" style="stop-color:#8EA764"/>
		<stop  offset="0.1139" style="stop-color:#8BA260"/>
		<stop  offset="0.2796" style="stop-color:#7D9356"/>
		<stop  offset="0.476" style="stop-color:#6C7E47"/>
		<stop  offset="0.5145" style="stop-color:#677A44"/>
		<stop  offset="0.8257" style="stop-color:#546535"/>
		<stop  offset="1" style="stop-color:#49582B"/>
	</linearGradient>
	<path class="st16" d="M27.1,63c4.1-4.5,1.3-10.2,1.3-10.2s-6.3-1.7-9.9,2.1s-2,9.3-6.6,15.3C11.9,70.3,22.9,67.2,27.1,63z"/>
	
		<linearGradient id="SVGID_16_" gradientUnits="userSpaceOnUse" x1="39.632" y1="2569.6409" x2="56.514" y2="2586.5229" gradientTransform="matrix(1 0 0 1 0 -2414.0002)">
		<stop  offset="1.331947e-07" style="stop-color:#8EA764"/>
		<stop  offset="0.1139" style="stop-color:#8BA260"/>
		<stop  offset="0.2796" style="stop-color:#7D9356"/>
		<stop  offset="0.476" style="stop-color:#6C7E47"/>
		<stop  offset="0.5145" style="stop-color:#677A44"/>
		<stop  offset="0.8257" style="stop-color:#546535"/>
		<stop  offset="1" style="stop-color:#49582B"/>
	</linearGradient>
	<path class="st17" d="M50,157.7c-4-4.6-10-2.5-10-2.5s-2.5,6,0.9,10s8.9,3.1,14.5,8.4C55.4,173.7,53.7,162.4,50,157.7z"/>
	
		<linearGradient id="SVGID_17_" gradientUnits="userSpaceOnUse" x1="26.8748" y1="2481.1838" x2="43.7568" y2="2498.0657" gradientTransform="matrix(1 0 0 1 0 -2414.0002)">
		<stop  offset="1.331947e-07" style="stop-color:#8EA764"/>
		<stop  offset="0.1139" style="stop-color:#8BA260"/>
		<stop  offset="0.2796" style="stop-color:#7D9356"/>
		<stop  offset="0.476" style="stop-color:#6C7E47"/>
		<stop  offset="0.5145" style="stop-color:#677A44"/>
		<stop  offset="0.8257" style="stop-color:#546535"/>
		<stop  offset="1" style="stop-color:#49582B"/>
	</linearGradient>
	<path class="st18" d="M37.2,69.2c-4-4.6-10-2.5-10-2.5s-2.5,6,0.9,10s8.9,3.1,14.5,8.4C42.6,85.2,40.9,73.9,37.2,69.2z"/>
	
		<linearGradient id="SVGID_18_" gradientUnits="userSpaceOnUse" x1="15.4052" y1="2409.5142" x2="32.2872" y2="2426.3962" gradientTransform="matrix(1 0 0 1 0 -2414.0002)">
		<stop  offset="1.331947e-07" style="stop-color:#8EA764"/>
		<stop  offset="0.1139" style="stop-color:#8BA260"/>
		<stop  offset="0.2796" style="stop-color:#7D9356"/>
		<stop  offset="0.476" style="stop-color:#6C7E47"/>
		<stop  offset="0.5145" style="stop-color:#677A44"/>
		<stop  offset="0.8257" style="stop-color:#546535"/>
		<stop  offset="1" style="stop-color:#49582B"/>
	</linearGradient>
	<path class="st19" d="M25.8-2.4c-4-4.6-10-2.5-10-2.5s-2.5,6,0.9,10s8.9,3.1,14.5,8.4C31.2,13.5,29.5,2.2,25.8-2.4z"/>
	
		<linearGradient id="SVGID_19_" gradientUnits="userSpaceOnUse" x1="13.1012" y1="2420.7239" x2="22.6301" y2="2430.2529" gradientTransform="matrix(1.0172 -3.024567e-02 -3.024567e-02 1.0532 67.2955 -2532.3362)">
		<stop  offset="1.331947e-07" style="stop-color:#8EA764"/>
		<stop  offset="0.1139" style="stop-color:#8BA260"/>
		<stop  offset="0.2796" style="stop-color:#7D9356"/>
		<stop  offset="0.476" style="stop-color:#6C7E47"/>
		<stop  offset="0.5145" style="stop-color:#677A44"/>
		<stop  offset="0.8257" style="stop-color:#546535"/>
		<stop  offset="1" style="stop-color:#49582B"/>
	</linearGradient>
	<path class="st20" d="M20.1,22.8c2.3-4.7-2.6-9.8-2.6-9.8s-6.9-1.1-9.1,2.9s1.5,9-0.8,15.3C7.7,31.2,17.5,27.2,20.1,22.8z"/>
	
		<linearGradient id="SVGID_20_" gradientUnits="userSpaceOnUse" x1="18.1235" y1="2456.3784" x2="26.2421" y2="2464.4971" gradientTransform="matrix(1 0 0 1 0 -2414.0002)">
		<stop  offset="1.331947e-07" style="stop-color:#8EA764"/>
		<stop  offset="0.1139" style="stop-color:#8BA260"/>
		<stop  offset="0.2796" style="stop-color:#7D9356"/>
		<stop  offset="0.476" style="stop-color:#6C7E47"/>
		<stop  offset="0.5145" style="stop-color:#677A44"/>
		<stop  offset="0.8257" style="stop-color:#546535"/>
		<stop  offset="1" style="stop-color:#49582B"/>
	</linearGradient>
	<path class="st21" d="M29.3,47.2c2.3-4.4-1.8-8.8-1.8-8.8s-6.1-0.6-8.2,3.1s0.9,8.1-1.5,13.9C17.8,55.4,26.7,51.3,29.3,47.2z"/>
	
		<linearGradient id="SVGID_21_" gradientUnits="userSpaceOnUse" x1="15.765" y1="2496.3201" x2="23.8689" y2="2504.4238" gradientTransform="matrix(1 0 0 1 0 -2414.0002)">
		<stop  offset="1.331947e-07" style="stop-color:#8EA764"/>
		<stop  offset="0.1139" style="stop-color:#8BA260"/>
		<stop  offset="0.2796" style="stop-color:#7D9356"/>
		<stop  offset="0.476" style="stop-color:#6C7E47"/>
		<stop  offset="0.5145" style="stop-color:#677A44"/>
		<stop  offset="0.8257" style="stop-color:#546535"/>
		<stop  offset="1" style="stop-color:#49582B"/>
	</linearGradient>
	<path class="st22" d="M25.3,89c3.9-3,2.1-8.7,2.1-8.7s-5.3-3.1-8.7-0.6s-2.6,7.7-7.2,12C11.5,91.6,21.3,91.6,25.3,89z"/>
	
		<linearGradient id="SVGID_22_" gradientUnits="userSpaceOnUse" x1="1.307" y1="2553.2817" x2="10.8963" y2="2562.8711" gradientTransform="matrix(1 0 0 1 0 -2414.0002)">
		<stop  offset="1.331947e-07" style="stop-color:#8EA764"/>
		<stop  offset="0.1139" style="stop-color:#8BA260"/>
		<stop  offset="0.2796" style="stop-color:#7D9356"/>
		<stop  offset="0.476" style="stop-color:#6C7E47"/>
		<stop  offset="0.5145" style="stop-color:#677A44"/>
		<stop  offset="0.8257" style="stop-color:#546535"/>
		<stop  offset="1" style="stop-color:#49582B"/>
	</linearGradient>
	<path class="st23" d="M14.4,143.7c1.5-5.4-4.1-9.4-4.1-9.4s-6.9,0.7-8.4,5.4c-1.5,4.6,2.9,8.8,1.6,15.9
		C3.5,155.5,12.5,148.8,14.4,143.7z"/>
	
		<linearGradient id="SVGID_23_" gradientUnits="userSpaceOnUse" x1="12.006" y1="2592.2808" x2="21.5895" y2="2601.864" gradientTransform="matrix(1 0 0 1 0 -2414.0002)">
		<stop  offset="1.331947e-07" style="stop-color:#8EA764"/>
		<stop  offset="0.1139" style="stop-color:#8BA260"/>
		<stop  offset="0.2796" style="stop-color:#7D9356"/>
		<stop  offset="0.476" style="stop-color:#6C7E47"/>
		<stop  offset="0.5145" style="stop-color:#677A44"/>
		<stop  offset="0.8257" style="stop-color:#546535"/>
		<stop  offset="1" style="stop-color:#49582B"/>
	</linearGradient>
	<path class="st24" d="M25.1,182.7c1.5-5.4-4.1-9.4-4.1-9.4s-6.9,0.7-8.4,5.4s2.9,8.8,1.6,15.9C14.2,194.5,23.2,187.9,25.1,182.7z"
		/>
	
		<linearGradient id="SVGID_24_" gradientUnits="userSpaceOnUse" x1="11.0199" y1="2625.6946" x2="20.6033" y2="2635.2781" gradientTransform="matrix(1 0 0 1 0 -2414.0002)">
		<stop  offset="1.331947e-07" style="stop-color:#8EA764"/>
		<stop  offset="0.1139" style="stop-color:#8BA260"/>
		<stop  offset="0.2796" style="stop-color:#7D9356"/>
		<stop  offset="0.476" style="stop-color:#6C7E47"/>
		<stop  offset="0.5145" style="stop-color:#677A44"/>
		<stop  offset="0.8257" style="stop-color:#546535"/>
		<stop  offset="1" style="stop-color:#49582B"/>
	</linearGradient>
	<path class="st25" d="M24.1,216.1c1.5-5.4-4.1-9.4-4.1-9.4s-6.9,0.7-8.4,5.4c-1.5,4.6,2.9,8.8,1.6,15.9
		C13.2,227.9,22.2,221.3,24.1,216.1z"/>
	
		<linearGradient id="SVGID_25_" gradientUnits="userSpaceOnUse" x1="25.032" y1="2607.7869" x2="40.5823" y2="2623.3374" gradientTransform="matrix(1 0 0 1 0 -2414.0002)">
		<stop  offset="1.331947e-07" style="stop-color:#8EA764"/>
		<stop  offset="0.1139" style="stop-color:#8BA260"/>
		<stop  offset="0.2796" style="stop-color:#7D9356"/>
		<stop  offset="0.476" style="stop-color:#6C7E47"/>
		<stop  offset="0.5145" style="stop-color:#677A44"/>
		<stop  offset="0.8257" style="stop-color:#546535"/>
		<stop  offset="1" style="stop-color:#49582B"/>
	</linearGradient>
	<path class="st26" d="M26.6,203c-3.8-4-1.5-9.3-1.5-9.3s5.7-1.8,9.1,1.6c3.4,3.4,2.1,8.4,6.5,13.9C40.8,209.2,30.6,206.7,26.6,203z
		"/>
	
		<linearGradient id="SVGID_26_" gradientUnits="userSpaceOnUse" x1="13.0995" y1="2567.5718" x2="29.7088" y2="2584.1812" gradientTransform="matrix(1 0 0 1 0 -2414.0002)">
		<stop  offset="1.331947e-07" style="stop-color:#8EA764"/>
		<stop  offset="0.1139" style="stop-color:#8BA260"/>
		<stop  offset="0.2796" style="stop-color:#7D9356"/>
		<stop  offset="0.476" style="stop-color:#6C7E47"/>
		<stop  offset="0.5145" style="stop-color:#677A44"/>
		<stop  offset="0.8257" style="stop-color:#546535"/>
		<stop  offset="1" style="stop-color:#49582B"/>
	</linearGradient>
	<path class="st27" d="M13.9,162.7c-3.3-5.1,0.4-10.3,0.4-10.3s6.5-0.8,9.5,3.5s0.5,9.5,4.1,16.2C27.8,172.1,17.4,167.5,13.9,162.7z
		"/>
	
		<linearGradient id="SVGID_27_" gradientUnits="userSpaceOnUse" x1="9.5734" y1="2536.3582" x2="26.1828" y2="2552.9675" gradientTransform="matrix(1 0 0 1 0 -2414.0002)">
		<stop  offset="1.331947e-07" style="stop-color:#8EA764"/>
		<stop  offset="0.1139" style="stop-color:#8BA260"/>
		<stop  offset="0.2796" style="stop-color:#7D9356"/>
		<stop  offset="0.476" style="stop-color:#6C7E47"/>
		<stop  offset="0.5145" style="stop-color:#677A44"/>
		<stop  offset="0.8257" style="stop-color:#546535"/>
		<stop  offset="1" style="stop-color:#49582B"/>
	</linearGradient>
	<path class="st28" d="M10.4,131.5c-3.3-5.1,0.4-10.3,0.4-10.3s6.5-0.8,9.5,3.5c3,4.3,0.5,9.5,4.1,16.2
		C24.3,140.9,13.8,136.3,10.4,131.5z"/>
	
		<linearGradient id="SVGID_28_" gradientUnits="userSpaceOnUse" x1="12.6969" y1="2507.2183" x2="24.7326" y2="2519.2539" gradientTransform="matrix(1 0 0 1 0 -2414.0002)">
		<stop  offset="1.331947e-07" style="stop-color:#8EA764"/>
		<stop  offset="0.1139" style="stop-color:#8BA260"/>
		<stop  offset="0.2796" style="stop-color:#7D9356"/>
		<stop  offset="0.476" style="stop-color:#6C7E47"/>
		<stop  offset="0.5145" style="stop-color:#677A44"/>
		<stop  offset="0.8257" style="stop-color:#546535"/>
		<stop  offset="1" style="stop-color:#49582B"/>
	</linearGradient>
	<path class="st29" d="M14.1,95.7c0.2-6.1,5-8.2,5-8.2s4.5,3.1,4.4,8.3c-0.1,5.2-4.1,8-4.9,15.6C18.7,111.4,14.1,101.6,14.1,95.7z"
		/>
	
		<linearGradient id="SVGID_29_" gradientUnits="userSpaceOnUse" x1="22.7251" y1="2436.9673" x2="39.7307" y2="2453.9729" gradientTransform="matrix(1 0 0 1 0 -2414.0002)">
		<stop  offset="1.331947e-07" style="stop-color:#8EA764"/>
		<stop  offset="0.1139" style="stop-color:#8BA260"/>
		<stop  offset="0.2796" style="stop-color:#7D9356"/>
		<stop  offset="0.476" style="stop-color:#6C7E47"/>
		<stop  offset="0.5145" style="stop-color:#677A44"/>
		<stop  offset="0.8257" style="stop-color:#546535"/>
		<stop  offset="1" style="stop-color:#49582B"/>
	</linearGradient>
	<path class="st30" d="M24.7,34.3c-4.9-3.7-2.8-10.5-2.8-10.5s6.3-3.5,10.6-0.4s3.4,9.3,9.1,14.6C41.7,38.1,29.7,37.7,24.7,34.3z"/>
	
		<linearGradient id="SVGID_30_" gradientUnits="userSpaceOnUse" x1="3.542" y1="2487.4673" x2="14.2892" y2="2498.2144" gradientTransform="matrix(1 0 0 1 0 -2414.0002)">
		<stop  offset="1.331947e-07" style="stop-color:#8EA764"/>
		<stop  offset="0.1139" style="stop-color:#8BA260"/>
		<stop  offset="0.2796" style="stop-color:#7D9356"/>
		<stop  offset="0.476" style="stop-color:#6C7E47"/>
		<stop  offset="0.5145" style="stop-color:#677A44"/>
		<stop  offset="0.8257" style="stop-color:#546535"/>
		<stop  offset="1" style="stop-color:#49582B"/>
	</linearGradient>
	<path class="st31" d="M4.3,74.7c1.3-5.9,7.5-7,7.5-7s5.1,4.1,4.1,9.3c-1,5.1-6.3,7-8.6,14.3C7.3,91.3,3.3,80.6,4.3,74.7z"/>
	
		<linearGradient id="SVGID_31_" gradientUnits="userSpaceOnUse" x1="48.9633" y1="2497.3684" x2="67.4632" y2="2515.8684" gradientTransform="matrix(1 0 0 1 0 -2414.0002)">
		<stop  offset="1.331947e-07" style="stop-color:#8EA764"/>
		<stop  offset="0.1139" style="stop-color:#8BA260"/>
		<stop  offset="0.2796" style="stop-color:#7D9356"/>
		<stop  offset="0.476" style="stop-color:#6C7E47"/>
		<stop  offset="0.5145" style="stop-color:#677A44"/>
		<stop  offset="0.8257" style="stop-color:#546535"/>
		<stop  offset="1" style="stop-color:#49582B"/>
	</linearGradient>
	<path class="st32" d="M50.1,93.6c-3.8-5.5,0-11.3,0-11.3s7.1-1.1,10.5,3.6c3.4,4.6,1,10.4,5.2,17.7C65.8,103.6,54.1,98.8,50.1,93.6
		z"/>
	
		<linearGradient id="SVGID_32_" gradientUnits="userSpaceOnUse" x1="1.7351" y1="2515.9399" x2="10.0963" y2="2524.3013" gradientTransform="matrix(1 0 0 1 0 -2414.0002)">
		<stop  offset="1.331947e-07" style="stop-color:#8EA764"/>
		<stop  offset="0.1139" style="stop-color:#8BA260"/>
		<stop  offset="0.2796" style="stop-color:#7D9356"/>
		<stop  offset="0.476" style="stop-color:#6C7E47"/>
		<stop  offset="0.5145" style="stop-color:#677A44"/>
		<stop  offset="0.8257" style="stop-color:#546535"/>
		<stop  offset="1" style="stop-color:#49582B"/>
	</linearGradient>
	<path class="st33" d="M4,99.7c4.1-4.5,10-2.4,10-2.4s2.4,6-1,10s-9,3-14.5,8.3C-1.5,115.6,0.3,104.4,4,99.7z"/>
	
		<linearGradient id="SVGID_33_" gradientUnits="userSpaceOnUse" x1="55.588" y1="2632.4436" x2="72.3114" y2="2649.167" gradientTransform="matrix(1 0 0 1 0 -2414.0002)">
		<stop  offset="1.331947e-07" style="stop-color:#8EA764"/>
		<stop  offset="0.1139" style="stop-color:#8BA260"/>
		<stop  offset="0.2796" style="stop-color:#7D9356"/>
		<stop  offset="0.476" style="stop-color:#6C7E47"/>
		<stop  offset="0.5145" style="stop-color:#677A44"/>
		<stop  offset="0.8257" style="stop-color:#546535"/>
		<stop  offset="1" style="stop-color:#49582B"/>
	</linearGradient>
	<path class="st34" d="M56.6,227.7c-3.4-5,0.1-10.3,0.1-10.3s6.4-0.9,9.5,3.4c3.1,4.3,0.7,9.4,4.5,16.1
		C70.7,236.9,60.2,232.4,56.6,227.7z"/>
	
		<linearGradient id="SVGID_34_" gradientUnits="userSpaceOnUse" x1="38.6038" y1="2605.8921" x2="49.1872" y2="2616.4753" gradientTransform="matrix(1 0 0 1 0 -2414.0002)">
		<stop  offset="1.331947e-07" style="stop-color:#8EA764"/>
		<stop  offset="0.1139" style="stop-color:#8BA260"/>
		<stop  offset="0.2796" style="stop-color:#7D9356"/>
		<stop  offset="0.476" style="stop-color:#6C7E47"/>
		<stop  offset="0.5145" style="stop-color:#677A44"/>
		<stop  offset="0.8257" style="stop-color:#546535"/>
		<stop  offset="1" style="stop-color:#49582B"/>
	</linearGradient>
	<path class="st35" d="M51,195.2c0.9-6-4.5-9.2-4.5-9.2s-6.2,2-7.1,7.1c-0.9,5.2,3.4,8.9,2.8,16.5C42.2,209.6,49.7,201,51,195.2z"/>
	
		<linearGradient id="SVGID_35_" gradientUnits="userSpaceOnUse" x1="37.5778" y1="2571.1831" x2="45.9261" y2="2579.5312" gradientTransform="matrix(1 0 0 1 0 -2414.0002)">
		<stop  offset="1.331947e-07" style="stop-color:#8EA764"/>
		<stop  offset="0.1139" style="stop-color:#8BA260"/>
		<stop  offset="0.2796" style="stop-color:#7D9356"/>
		<stop  offset="0.476" style="stop-color:#6C7E47"/>
		<stop  offset="0.5145" style="stop-color:#677A44"/>
		<stop  offset="0.8257" style="stop-color:#546535"/>
		<stop  offset="1" style="stop-color:#49582B"/>
	</linearGradient>
	<path class="st36" d="M48.3,163.3c4.5-4.1,2.3-10,2.3-10s-6.1-2.3-10,1.1s-2.9,9-8.1,14.6C32.4,169,43.7,167,48.3,163.3z"/>
	
		<linearGradient id="SVGID_36_" gradientUnits="userSpaceOnUse" x1="28.0006" y1="2532.3557" x2="36.3525" y2="2540.7078" gradientTransform="matrix(1 0 0 1 0 -2414.0002)">
		<stop  offset="1.331947e-07" style="stop-color:#8EA764"/>
		<stop  offset="0.1139" style="stop-color:#8BA260"/>
		<stop  offset="0.2796" style="stop-color:#7D9356"/>
		<stop  offset="0.476" style="stop-color:#6C7E47"/>
		<stop  offset="0.5145" style="stop-color:#677A44"/>
		<stop  offset="0.8257" style="stop-color:#546535"/>
		<stop  offset="1" style="stop-color:#49582B"/>
	</linearGradient>
	<path class="st37" d="M39.1,124c4.1-4.5,1.3-10.2,1.3-10.2s-6.3-1.7-9.9,2.1c-3.6,3.8-2,9.3-6.6,15.3
		C23.9,131.3,34.9,128.2,39.1,124z"/>
	
		<linearGradient id="SVGID_37_" gradientUnits="userSpaceOnUse" x1="46.4681" y1="2484.4231" x2="54.82" y2="2492.7749" gradientTransform="matrix(1 0 0 1 0 -2414.0002)">
		<stop  offset="1.331947e-07" style="stop-color:#8EA764"/>
		<stop  offset="0.1139" style="stop-color:#8BA260"/>
		<stop  offset="0.2796" style="stop-color:#7D9356"/>
		<stop  offset="0.476" style="stop-color:#6C7E47"/>
		<stop  offset="0.5145" style="stop-color:#677A44"/>
		<stop  offset="0.8257" style="stop-color:#546535"/>
		<stop  offset="1" style="stop-color:#49582B"/>
	</linearGradient>
	<path class="st38" d="M57.6,76.1c4.1-4.5,1.3-10.2,1.3-10.2S52.6,64.2,49,68c-3.6,3.8-2,9.3-6.6,15.3
		C42.4,83.3,53.4,80.3,57.6,76.1z"/>
	
		<linearGradient id="SVGID_38_" gradientUnits="userSpaceOnUse" x1="190.2789" y1="870.3626" x2="203.6631" y2="883.7466" gradientTransform="matrix(1.0472 0.3816 -0.3698 0.9568 168.6287 -891.091)">
		<stop  offset="1.331947e-07" style="stop-color:#8EA764"/>
		<stop  offset="0.1139" style="stop-color:#8BA260"/>
		<stop  offset="0.2796" style="stop-color:#7D9356"/>
		<stop  offset="0.476" style="stop-color:#6C7E47"/>
		<stop  offset="0.5145" style="stop-color:#677A44"/>
		<stop  offset="0.8257" style="stop-color:#546535"/>
		<stop  offset="1" style="stop-color:#49582B"/>
	</linearGradient>
	<path class="st39" d="M57.5,21.6c1.3-6.1-4.5-9.9-4.5-9.9s-7,1.5-8.3,6.7S48,27.8,47,35.6C47,35.5,55.8,27.4,57.5,21.6z"/>
	
		<linearGradient id="SVGID_39_" gradientUnits="userSpaceOnUse" x1="39.5613" y1="2544.0686" x2="54.0614" y2="2558.5688" gradientTransform="matrix(1 0 0 1 0 -2414.0002)">
		<stop  offset="1.331947e-07" style="stop-color:#8EA764"/>
		<stop  offset="0.1139" style="stop-color:#8BA260"/>
		<stop  offset="0.2796" style="stop-color:#7D9356"/>
		<stop  offset="0.476" style="stop-color:#6C7E47"/>
		<stop  offset="0.5145" style="stop-color:#677A44"/>
		<stop  offset="0.8257" style="stop-color:#546535"/>
		<stop  offset="1" style="stop-color:#49582B"/>
	</linearGradient>
	<path class="st40" d="M39.7,137.1c-2.1-5.2,2-9.2,2-9.2s5.9,0.4,7.9,4.8s-1.1,8.6,1,15.3C50.6,148,42.1,142,39.7,137.1z"/>
	
		<linearGradient id="SVGID_40_" gradientUnits="userSpaceOnUse" x1="53.5507" y1="2615.1785" x2="66.4013" y2="2628.0288" gradientTransform="matrix(1 0 0 1 0 -2414.0002)">
		<stop  offset="1.331947e-07" style="stop-color:#8EA764"/>
		<stop  offset="0.1139" style="stop-color:#8BA260"/>
		<stop  offset="0.2796" style="stop-color:#7D9356"/>
		<stop  offset="0.476" style="stop-color:#6C7E47"/>
		<stop  offset="0.5145" style="stop-color:#677A44"/>
		<stop  offset="0.8257" style="stop-color:#546535"/>
		<stop  offset="1" style="stop-color:#49582B"/>
	</linearGradient>
	<path class="st41" d="M56.2,212c-5.4-1.2-6.4-6.9-6.4-6.9s3.7-4.7,8.4-3.8s6.5,5.8,13.2,7.8C71.3,209.2,61.5,212.8,56.2,212z"/>
	
		<linearGradient id="SVGID_41_" gradientUnits="userSpaceOnUse" x1="31.517" y1="2517.626" x2="48.399" y2="2534.5078" gradientTransform="matrix(1 0 0 1 0 -2414.0002)">
		<stop  offset="1.331947e-07" style="stop-color:#8EA764"/>
		<stop  offset="0.1139" style="stop-color:#8BA260"/>
		<stop  offset="0.2796" style="stop-color:#7D9356"/>
		<stop  offset="0.476" style="stop-color:#6C7E47"/>
		<stop  offset="0.5145" style="stop-color:#677A44"/>
		<stop  offset="0.8257" style="stop-color:#546535"/>
		<stop  offset="1" style="stop-color:#49582B"/>
	</linearGradient>
	<path class="st42" d="M41.9,105.7c-4-4.6-10-2.5-10-2.5s-2.5,6,0.9,10s8.9,3.1,14.5,8.4C47.3,121.7,45.6,110.4,41.9,105.7z"/>
	
		<linearGradient id="SVGID_42_" gradientUnits="userSpaceOnUse" x1="47.4067" y1="2587.5854" x2="62.6259" y2="2602.8047" gradientTransform="matrix(1 0 0 1 0 -2414.0002)">
		<stop  offset="1.331947e-07" style="stop-color:#8EA764"/>
		<stop  offset="0.1139" style="stop-color:#8BA260"/>
		<stop  offset="0.2796" style="stop-color:#7D9356"/>
		<stop  offset="0.476" style="stop-color:#6C7E47"/>
		<stop  offset="0.5145" style="stop-color:#677A44"/>
		<stop  offset="0.8257" style="stop-color:#546535"/>
		<stop  offset="1" style="stop-color:#49582B"/>
	</linearGradient>
	<path class="st43" d="M48.1,181.8c-2.9-4.7,0.5-9.4,0.5-9.4s5.9-0.6,8.6,3.4c2.6,4,0.3,8.7,3.5,14.9
		C60.7,190.8,51.3,186.3,48.1,181.8z"/>
	
		<linearGradient id="SVGID_43_" gradientUnits="userSpaceOnUse" x1="60.153" y1="2462.9788" x2="77.0264" y2="2479.8521" gradientTransform="matrix(1 0 0 1 0 -2414.0002)">
		<stop  offset="1.331947e-07" style="stop-color:#8EA764"/>
		<stop  offset="0.1139" style="stop-color:#8BA260"/>
		<stop  offset="0.2796" style="stop-color:#7D9356"/>
		<stop  offset="0.476" style="stop-color:#6C7E47"/>
		<stop  offset="0.5145" style="stop-color:#677A44"/>
		<stop  offset="0.8257" style="stop-color:#546535"/>
		<stop  offset="1" style="stop-color:#49582B"/>
	</linearGradient>
	<path class="st44" d="M60.4,58.5c-3.2-5.3,1.1-10.8,1.1-10.8s7.2-1,10.1,3.4S71.5,61,74.9,68C74.9,68,63.8,63.4,60.4,58.5z"/>
	
		<linearGradient id="SVGID_44_" gradientUnits="userSpaceOnUse" x1="31.0865" y1="2510.9417" x2="40.295" y2="2520.1501" gradientTransform="matrix(1 0 0 1 0 -2414.0002)">
		<stop  offset="1.331947e-07" style="stop-color:#8EA764"/>
		<stop  offset="0.1139" style="stop-color:#8BA260"/>
		<stop  offset="0.2796" style="stop-color:#7D9356"/>
		<stop  offset="0.476" style="stop-color:#6C7E47"/>
		<stop  offset="0.5145" style="stop-color:#677A44"/>
		<stop  offset="0.8257" style="stop-color:#546535"/>
		<stop  offset="1" style="stop-color:#49582B"/>
	</linearGradient>
	<path class="st45" d="M34.2,93.9c5.1-4.4,11.3-1.2,11.3-1.2s1.8,6.9-2.5,10.8s-10.3,2-17.1,6.9C25.9,110.5,29.5,98.4,34.2,93.9z"/>
	
		<linearGradient id="SVGID_45_" gradientUnits="userSpaceOnUse" x1="45.3759" y1="2416.4578" x2="58.9747" y2="2430.0566" gradientTransform="matrix(1 0 0 1 0 -2414.0002)">
		<stop  offset="1.331947e-07" style="stop-color:#8EA764"/>
		<stop  offset="0.1139" style="stop-color:#8BA260"/>
		<stop  offset="0.2796" style="stop-color:#7D9356"/>
		<stop  offset="0.476" style="stop-color:#6C7E47"/>
		<stop  offset="0.5145" style="stop-color:#677A44"/>
		<stop  offset="0.8257" style="stop-color:#546535"/>
		<stop  offset="1" style="stop-color:#49582B"/>
	</linearGradient>
	<path class="st46" d="M57,5.3c-1.3-5.7-7.6-6.7-7.6-6.7s-5.2,4-4.2,9c0.9,5,6.4,6.8,8.6,13.8C53.7,21.4,57.9,11,57,5.3z"/>
	
		<linearGradient id="SVGID_46_" gradientUnits="userSpaceOnUse" x1="21.035" y1="2569.1096" x2="30.6243" y2="2578.699" gradientTransform="matrix(1 0 0 1 0 -2414.0002)">
		<stop  offset="1.331947e-07" style="stop-color:#8EA764"/>
		<stop  offset="0.1139" style="stop-color:#8BA260"/>
		<stop  offset="0.2796" style="stop-color:#7D9356"/>
		<stop  offset="0.476" style="stop-color:#6C7E47"/>
		<stop  offset="0.5145" style="stop-color:#677A44"/>
		<stop  offset="0.8257" style="stop-color:#546535"/>
		<stop  offset="1" style="stop-color:#49582B"/>
	</linearGradient>
	<path class="st47" d="M34.1,159.5c1.5-5.4-4.1-9.4-4.1-9.4s-6.9,0.7-8.4,5.4s2.9,8.8,1.6,15.9C23.2,171.4,32.3,164.7,34.1,159.5z"
		/>
</g>
<g id="_x22_contenu_x22_">
</g>
</svg>
