<?xml version="1.0" encoding="utf-8"?>
<!-- Generator: Adobe Illustrator 25.0.0, SVG Export Plug-In . SVG Version: 6.00 Build 0)  -->
<svg version="1.1" xmlns="http://www.w3.org/2000/svg" xmlns:xlink="http://www.w3.org/1999/xlink" x="0px" y="0px"
	 viewBox="0 0 1133.9 1133.9" style="enable-background:new 0 0 1133.9 1133.9;" xml:space="preserve">
<style type="text/css">
	.st0{display:none;}
	.st1{display:none;fill:#E30613;}
	.st2{fill:#E30613;stroke:#FFFFFF;stroke-miterlimit:10;}
	.st3{fill:#B70E0C;}
	.st4{font-family:'Impact';}
	.st5{font-size:60px;}
	.st6{font-size:50px;}
	.st7{display:none;fill:#E30613;stroke:#FFFFFF;stroke-miterlimit:10;}
	.st8{fill:#E30613;}
</style>
<g id="Calque_1" class="st0">
	
		<image style="display:inline;overflow:visible;" width="457" height="342" xlink:href="CEAE92CB.jpg"  transform="matrix(1.8913 0 0 1.8913 146.2177 224.6132)">
	</image>
</g>
<g id="Calque_2">
	<path class="st1" d="M645.9,294.1c0,0-81.5,160.3-259.3,572.1c190-384.3,276.6-562.9,276.6-562.9s94.4,27.1,102.1,25.7
		c14.2-2.5-103.1-23.9-97.2-39.4s16.5-33.3,16.5-33.3l-14.6-7.7l-17.9,33.7c0,0-43.5-17.2-26.4-33.9c17-16.7,30,0.7,30,0.7l2.5-6.9
		c0,0-25.8-21.9-44.7,4.9c-8,15.1,7.8,29.3,7.8,29.3s-40.2-19-50.3-22C561,251.3,572.3,263.2,645.9,294.1z"/>
	<path class="st2" d="M461.7,388.2c-2,13.7-9.8,60.1-25,72.2c-13.8,21.4,12.8,140.4,12.8,140.4s-31.1-83.9-23.4-143
		c0.2-1.7-1-3.2-2.7-3.3c-32.8-2-155.5-4.9-179.6-62.1c-25-59.2,16.3-180.3,16.3-180.3s-10.2,164.4,47.5,171.6
		c63.3,7.6,133.9,2.3,150.9,0.9C460.4,384.5,462,386.2,461.7,388.2z"/>
	<path class="st2" d="M666.2,388.2c2,13.7,9.8,60.1,25,72.2c13.8,21.4-12.8,140.4-12.8,140.4s31.1-83.9,23.4-143
		c-0.2-1.7,1-3.2,2.7-3.3c32.8-2,155.5-4.9,179.6-62.1c25-59.2-16.3-180.3-16.3-180.3s10.2,164.4-47.5,171.6
		c-63.3,7.6-133.9,2.3-150.9,0.9C667.5,384.5,665.9,386.2,666.2,388.2z"/>
	<path class="st2" d="M609.1,698.1c-25.9-0.1-39.6,2.4-42.5,3c-2.5-0.5-16.2-3-42.7-2.6c-29.4,0.4-35.7,43.6-34.6,53.8
		c1.2,10.2,3.9,25,9.7,31.6c5.5,6.4,21.8-1.3,33.3,11.5c2,2.3,4.4,4.2,7.3,5.2c10.9,4,25-1.2,27.3-2.1c2,0.8,16.4,6.1,27.4,1.9
		c2.8-1.1,5.2-3,7.2-5.3c11.3-13,27.7-5.4,33.2-11.8c5.7-6.7,8.3-21.5,9.4-31.7C645.2,741.4,638.5,698.2,609.1,698.1z M520.7,742.2
		c-12.4-12.3,3.8-27.6,3.8-27.6c-1.7,28.9,27.7-1.1,25.9,29.1C549.8,752.6,533.1,754.5,520.7,742.2z M566.2,788.6
		c-9.7,3.3-28.8-1-28.8-1s15.1,1.7,28.8-1.1c11.8,2.2,26.3-1,26.3-1S576.6,791.6,566.2,788.6z M613.9,738.5
		c-11.4,13.2-28.2,12.7-29.5,3.9c-4.3-30,27.5-2.5,23.5-31.1C607.9,711.4,625.3,725.3,613.9,738.5z"/>
	<text transform="matrix(1 0 0 1 410.7134 667.8657)" class="st3 st4 st5">ANTICORRIDA</text>
	<text transform="matrix(1 0 0 1 474.4947 480.2056)" class="st4 st6">ALLIANCE</text>
	<path class="st7" d="M692,383.7c-17.6,5.8-5.5,2.5-22.5,1c-2-0.2-3.6,1.5-3.3,3.5c2,13.7,9.8,60.1,25,72.2
		c13.8,21.4-12.8,140.4-12.8,140.4s31.1-83.9,23.4-143c-0.2-1.7,1.1-2.8,2.7-3.3c3.8-1.2,3.8-1.2,8.8-3.5"/>
	
		<image style="display:none;overflow:visible;" width="94" height="539" xlink:href="CEAE92C9.jpg"  transform="matrix(1 0 0 1 145.8511 439.856)">
	</image>
	<path class="st8" d="M646.6,727.4c0,0,2.9-0.4,241.2-37.1c-241.1,23.7-243.2,24-243.2,24"/>
	<path class="st8" d="M361.5,906.3"/>
	<path class="st8" d="M344.8,767.7c0,0,106-10.6,139.5-16.9c0.2-4.9,0.1-9.2-0.2-14.1c-7.8-1-141.2,11.5-141.2,11.5
		s-29.4-93.7-34.8-99.4c-9.9-10.5,36.8,99.2,20.6,102.8s-36.9,4.5-36.9,4.5l1.6,16.4l38-3.6c0,0,9.5,45.8-13.8,40.7
		c-23.3-5-15.9-25.5-15.9-25.5l-7.1,1.7c0,0-4.1,33.6,28.7,34.6c17-1.6,20.2-22.7,20.2-22.7s6.3,44,9.3,54.1
		C355.9,862.1,359.6,846.2,344.8,767.7z"/>
</g>
</svg>
