<?xml version="1.0" encoding="utf-8"?>
<!-- Generator: Adobe Illustrator 25.0.0, SVG Export Plug-In . SVG Version: 6.00 Build 0)  -->
<svg version="1.1" xmlns="http://www.w3.org/2000/svg" xmlns:xlink="http://www.w3.org/1999/xlink" x="0px" y="0px"
	 viewBox="0 0 850.4 850.4" style="enable-background:new 0 0 850.4 850.4;" xml:space="preserve">
<style type="text/css">
	.st0{font-family:'Cinzel-Medium';}
	.st1{font-size:436.7069px;}
	.st2{stroke:#000000;stroke-miterlimit:10;}
</style>
<g id="R">
	<text transform="matrix(1.0681 0 0 1 316.2605 584.5991)" class="st0 st1">R</text>
</g>
<g id="Plante">
	<path class="st2" d="M310.2,173.3c0,0-24.1-43.4,41.2-67.5C360,173.3,310.2,173.3,310.2,173.3z"/>
	<g>
		<path d="M287.9,584.6c-5.1-7.8-9.6-16-13.8-24.3c-4.2-8.3-8.1-16.9-11.7-25.5c-7.1-17.3-13.2-35.1-17.9-53.3
			c-4.8-18.1-8.3-36.7-10.4-55.4c-2.1-18.7-2.9-37.6-2-56.4c1.6-37.7,9.6-75.2,24.1-110c7.1-17.4,16-34.1,26-49.9
			c10.2-15.7,21.5-30.7,34.2-44.4c-10.9,15.1-21,30.7-29.9,46.9c-4.4,8.1-8.7,16.3-12.4,24.7c-2,4.2-3.7,8.4-5.5,12.7
			c-0.9,2.1-1.7,4.3-2.6,6.4c-0.8,2.1-1.7,4.3-2.4,6.4L261,269l-2.1,6.6c-0.3,1.1-0.7,2.2-1.1,3.3l-1,3.3c-0.6,2.2-1.4,4.4-1.9,6.6
			c-2.5,8.8-4.6,17.8-6.4,26.8c-3.5,18-5.7,36.3-6.5,54.6c-0.5,9.2-0.5,18.3-0.2,27.5c0.2,9.2,0.8,18.4,1.7,27.5
			c1.7,18.3,4.7,36.5,8.6,54.5c2,9,4.3,18,6.7,26.9c2.5,8.9,5.2,17.7,8.2,26.5c1.5,4.4,3,8.8,4.6,13.1c1.6,4.3,3.3,8.7,5,13
			c1.7,4.3,3.5,8.6,5.4,12.8C283.9,576.2,285.8,580.4,287.9,584.6z"/>
	</g>
	<path class="st2" d="M267.2,236.9c0,0-47.7-13.6-18.6-76.9C302.4,201.7,267.2,236.9,267.2,236.9z"/>
	<path class="st2" d="M253.2,300c0,0-2-49.6,67.2-41.7C297.7,322.4,253.2,300,253.2,300z"/>
	<path class="st2" d="M231.5,356.1c0,0-49.5,3.7-44.1-65.7C252.3,310.9,231.5,356.1,231.5,356.1z"/>
	<path class="st2" d="M243,416.6c0,0-12.3-48.1,57-54.8C291.1,429.3,243,416.6,243,416.6z"/>
	<path class="st2" d="M245.8,482.1c0,0-47.1,15.7-58.8-52.9C254.9,433.1,245.8,482.1,245.8,482.1z"/>
	<path class="st2" d="M268.4,539.7c0,0-23.7-43.6,41.9-67.1C318.2,540.2,268.4,539.7,268.4,539.7z"/>
</g>
</svg>
